<svg xmlns="http://www.w3.org/2000/svg" xmlns:xlink="http://www.w3.org/1999/xlink" width="500" zoomAndPan="magnify" viewBox="0 0 375 374.999991" height="500" preserveAspectRatio="xMidYMid meet" version="1.0"><defs><clipPath id="5af494f797"><path d="M 39.476562 39.476562 L 335.726562 39.476562 L 335.726562 335.726562 L 39.476562 335.726562 Z M 39.476562 39.476562 " clip-rule="nonzero"/></clipPath></defs><g clip-path="url(#5af494f797)"><path fill="#f5e6fe" d="M 280.179688 335.726562 L 95.023438 335.726562 C 64.34375 335.726562 39.476562 310.859375 39.476562 280.179688 L 39.476562 95.023438 C 39.476562 64.34375 64.34375 39.476562 95.023438 39.476562 L 280.179688 39.476562 C 310.859375 39.476562 335.726562 64.34375 335.726562 95.023438 L 335.726562 280.179688 C 335.726562 310.859375 310.859375 335.726562 280.179688 335.726562 Z M 280.179688 335.726562 " fill-opacity="1" fill-rule="nonzero"/></g><path fill="#be63f9" d="M 219.835938 140.636719 C 212.339844 136 205.152344 134.175781 197.996094 129.535156 C 193.609375 126.621094 187.433594 119.601562 182.296875 113.539062 C 181.378906 123.242188 178.417969 127.183594 174.871094 129.933594 C 167.6875 135.5625 163.125 137.292969 156.808594 140.636719 C 151.476562 143.386719 122.796875 162.761719 122.796875 198.878906 C 122.796875 235.058594 153.78125 261.664062 188.203125 261.664062 C 222.53125 261.664062 252.40625 237.148438 252.40625 200.042969 C 252.40625 162.835938 224.390625 143.386719 219.835938 140.636719 Z M 220.6875 248.5 C 213.902344 255.164062 190.277344 258.015625 181.296875 249.898438 C 179.675781 248.304688 181.398438 245.917969 183.492188 245.917969 C 183.492188 245.917969 189.230469 250.324219 200.875 250.324219 C 209.996094 250.324219 216.402344 247.769531 219.273438 245.683594 C 221.328125 244.15625 222.105469 247.109375 220.6875 248.5 Z M 202.285156 231.074219 C 205.21875 229.882812 212.070312 229.816406 214.707031 231.511719 C 216.085938 232.4375 220.140625 237.742188 216.800781 239.363281 C 213.96875 240.75 216.402344 234.160156 207.855469 234.160156 C 202.894531 234.160156 201.273438 235.878906 198.839844 237.804688 C 196.480469 239.796875 195.535156 240.453125 194.71875 239.363281 C 192.703125 236.640625 200.089844 231.972656 202.285156 231.074219 Z M 233.5 236.816406 C 228.382812 236.472656 218.152344 220.640625 211.570312 220.410156 C 201.144531 220.113281 176.425781 247.148438 157.125 234.324219 C 144.023438 225.511719 152.199219 199.597656 174.613281 199.46875 C 191.3125 199.304688 202.894531 215.707031 211.238281 215.53125 C 218.421875 215.429688 232.09375 201.683594 238.84375 201.683594 C 255.277344 201.691406 246.703125 237.898438 233.5 236.816406 Z M 233.5 236.816406 " fill-opacity="1" fill-rule="nonzero"/></svg>