<svg xmlns="http://www.w3.org/2000/svg" xmlns:xlink="http://www.w3.org/1999/xlink" width="500" zoomAndPan="magnify" viewBox="0 0 375 374.999991" height="500" preserveAspectRatio="xMidYMid meet" version="1.0"><defs><clipPath id="cdd4ddd9b3"><path d="M 61.285156 11 L 297 11 L 297 352 L 61.285156 352 Z M 61.285156 11 " clip-rule="nonzero"/></clipPath><clipPath id="f84d2f11b8"><path d="M 61.285156 15 L 297 15 L 297 352 L 61.285156 352 Z M 61.285156 15 " clip-rule="nonzero"/></clipPath><clipPath id="91347054b1"><path d="M 61.285156 155 L 237 155 L 237 352 L 61.285156 352 Z M 61.285156 155 " clip-rule="nonzero"/></clipPath></defs><g clip-path="url(#cdd4ddd9b3)"><path fill="#323738" d="M 296.257812 36.484375 L 261.566406 16.636719 C 260.046875 15.53125 258.421875 14.597656 256.691406 13.84375 L 256.179688 13.554688 L 256.160156 13.597656 C 246.824219 9.808594 234.769531 11.179688 221.617188 18.761719 L 114.761719 80.359375 C 85.382812 97.300781 61.34375 138.882812 61.34375 172.761719 L 61.34375 295.972656 C 61.34375 312.492188 67.089844 324.207031 76.355469 329.960938 L 76.265625 330.121094 L 114.820312 351.933594 L 136.503906 314.238281 L 221.617188 265.167969 C 250.992188 248.230469 275.035156 206.648438 275.035156 172.765625 L 275.035156 73.375 Z M 296.257812 36.484375 " fill-opacity="1" fill-rule="nonzero"/></g><g clip-path="url(#f84d2f11b8)"><path fill="#252b2d" d="M 296.257812 36.484375 L 259.121094 27.785156 C 257.605469 26.679688 250.019531 26.707031 248.292969 25.953125 L 245.539062 24.855469 L 240.582031 23.933594 C 231.25 20.148438 234.769531 11.175781 221.617188 18.757812 L 114.761719 80.359375 C 85.382812 97.300781 61.34375 138.882812 61.34375 172.761719 L 61.34375 295.972656 C 61.34375 312.492188 67.089844 324.207031 76.355469 329.960938 L 76.265625 330.121094 L 114.820312 351.933594 L 136.503906 314.238281 L 221.617188 265.167969 C 250.992188 248.230469 275.035156 206.648438 275.035156 172.765625 L 275.035156 73.375 Z M 296.257812 36.484375 " fill-opacity="1" fill-rule="nonzero"/></g><g clip-path="url(#91347054b1)"><path fill="#090c0c" d="M 63.386719 155.011719 C 62.089844 161.042969 61.351562 167.019531 61.351562 172.761719 L 61.351562 295.972656 C 61.351562 312.492188 67.097656 324.207031 76.363281 329.960938 L 76.273438 330.121094 L 114.828125 351.933594 L 136.511719 314.238281 L 221.625 265.167969 C 226.617188 262.292969 231.441406 258.65625 236.027344 254.507812 Z M 63.386719 155.011719 " fill-opacity="1" fill-rule="nonzero"/></g><path fill="#3b4142" d="M 151.496094 101.625 C 122.113281 118.566406 98.070312 160.148438 98.070312 194.027344 L 98.070312 317.234375 C 98.070312 351.117188 122.113281 364.976562 151.496094 348.035156 L 258.34375 286.433594 C 287.722656 269.492188 311.765625 227.914062 311.765625 194.027344 L 311.765625 70.824219 C 311.765625 36.941406 287.722656 23.085938 258.34375 40.027344 Z M 151.496094 101.625 " fill-opacity="1" fill-rule="nonzero"/><path fill="#383e3f" d="M 311.765625 70.824219 C 311.765625 36.941406 287.71875 23.085938 258.339844 40.027344 L 151.492188 101.625 C 122.113281 118.566406 98.066406 160.148438 98.066406 194.027344 L 98.066406 317.234375 C 98.066406 351.117188 122.113281 364.976562 151.492188 348.035156 " fill-opacity="0.2" fill-rule="nonzero"/><path fill="#3b4142" d="M 98.808594 184.773438 L 311.039062 62.410156 C 311.375 59.84375 311.589844 57.308594 311.679688 54.804688 L 98.164062 177.910156 C 98.253906 180.304688 98.472656 182.59375 98.808594 184.773438 Z M 98.808594 184.773438 " fill-opacity="1" fill-rule="nonzero"/><path fill="#4f5759" d="M 127.761719 357.46875 L 127.757812 357.46875 C 108.386719 357.46875 95.871094 341.675781 95.871094 317.234375 L 95.871094 194.027344 C 95.871094 159.359375 120.324219 117.050781 150.386719 99.722656 L 257.242188 38.117188 C 265.902344 33.125 274.261719 30.597656 282.078125 30.597656 C 301.449219 30.597656 313.96875 46.390625 313.96875 70.824219 L 313.96875 194.03125 C 313.96875 228.703125 289.507812 271.007812 259.445312 288.339844 L 152.59375 349.945312 C 143.929688 354.933594 135.582031 357.46875 127.761719 357.46875 Z M 282.082031 34.988281 C 275.042969 34.988281 267.429688 37.320312 259.449219 41.917969 L 152.59375 103.519531 C 123.746094 120.15625 100.273438 160.753906 100.273438 194.019531 L 100.273438 317.226562 C 100.273438 339.328125 110.804688 353.054688 127.757812 353.054688 L 127.761719 353.054688 C 134.796875 353.054688 142.40625 350.722656 150.386719 346.128906 L 257.242188 284.523438 C 286.089844 267.890625 309.5625 227.289062 309.5625 194.023438 L 309.5625 70.816406 C 309.5625 48.714844 299.035156 34.988281 282.082031 34.988281 Z M 282.082031 34.988281 " fill-opacity="1" fill-rule="nonzero"/><path fill="#ff4d8d" d="M 140.59375 136.183594 C 140.59375 133.34375 142.601562 129.863281 145.066406 128.445312 C 147.527344 127.027344 149.542969 128.183594 149.539062 131.023438 C 149.542969 133.863281 147.523438 137.347656 145.066406 138.765625 C 142.605469 140.183594 140.59375 139.023438 140.59375 136.183594 Z M 140.59375 136.183594 " fill-opacity="1" fill-rule="nonzero"/><path fill="#ea2864" d="M 145.066406 138.765625 C 142.605469 140.179688 140.597656 139.023438 140.59375 136.183594 C 140.597656 133.34375 142.605469 129.863281 145.066406 128.445312 " fill-opacity="1" fill-rule="nonzero"/><path fill="#f7d011" d="M 159.660156 125.300781 C 159.660156 122.457031 161.667969 118.980469 164.128906 117.558594 C 166.59375 116.140625 168.605469 117.300781 168.605469 120.140625 C 168.605469 122.976562 166.59375 126.460938 164.128906 127.878906 C 161.671875 129.296875 159.660156 128.136719 159.660156 125.300781 Z M 159.660156 125.300781 " fill-opacity="1" fill-rule="nonzero"/><path fill="#f4b414" d="M 164.132812 127.878906 C 161.671875 129.296875 159.660156 128.136719 159.660156 125.300781 C 159.660156 122.457031 161.671875 118.980469 164.132812 117.558594 " fill-opacity="1" fill-rule="nonzero"/><path fill="#15eaa8" d="M 178.722656 114.414062 C 178.722656 111.574219 180.738281 108.089844 183.195312 106.671875 C 185.660156 105.253906 187.671875 106.414062 187.671875 109.253906 C 187.671875 112.09375 185.65625 115.570312 183.195312 116.988281 C 180.738281 118.410156 178.722656 117.246094 178.722656 114.414062 Z M 178.722656 114.414062 " fill-opacity="1" fill-rule="nonzero"/><path fill="#08c1b3" d="M 183.199219 116.988281 C 180.738281 118.410156 178.726562 117.25 178.726562 114.414062 C 178.726562 111.574219 180.738281 108.089844 183.199219 106.671875 " fill-opacity="1" fill-rule="nonzero"/><path fill="#ffffff" d="M 195.953125 229.984375 C 194.59375 229.984375 193.214844 229.640625 191.953125 228.914062 L 150.308594 204.902344 C 146.476562 202.691406 145.164062 197.792969 147.375 193.964844 C 149.585938 190.136719 154.484375 188.824219 158.324219 191.035156 L 199.96875 215.046875 C 203.804688 217.257812 205.117188 222.15625 202.902344 225.984375 C 201.417969 228.550781 198.726562 229.984375 195.953125 229.984375 Z M 195.953125 229.984375 " fill-opacity="1" fill-rule="nonzero"/><path fill="#ffffff" d="M 154.3125 302.011719 C 152.953125 302.011719 151.574219 301.667969 150.308594 300.941406 C 146.476562 298.734375 145.167969 293.835938 147.375 290.007812 L 189.019531 217.972656 C 191.234375 214.140625 196.121094 212.828125 199.972656 215.039062 C 203.808594 217.25 205.117188 222.144531 202.90625 225.976562 L 161.261719 298.011719 C 159.777344 300.582031 157.082031 302.011719 154.3125 302.011719 Z M 154.3125 302.011719 " fill-opacity="1" fill-rule="nonzero"/><path fill="#ffffff" d="M 209.859375 270.007812 C 207.085938 270.007812 204.394531 268.574219 202.90625 266.003906 C 200.699219 262.175781 202.007812 257.28125 205.84375 255.070312 L 261.375 223.054688 C 265.214844 220.832031 270.113281 222.15625 272.328125 225.984375 C 274.535156 229.816406 273.226562 234.710938 269.390625 236.921875 L 213.855469 268.9375 C 212.59375 269.664062 211.214844 270.007812 209.859375 270.007812 Z M 209.859375 270.007812 " fill-opacity="1" fill-rule="nonzero"/></svg>