<svg xmlns="http://www.w3.org/2000/svg" xmlns:xlink="http://www.w3.org/1999/xlink" width="500" zoomAndPan="magnify" viewBox="0 0 375 374.999991" height="500" preserveAspectRatio="xMidYMid meet" version="1.0"><defs><g/><clipPath id="f45f4730e5"><path d="M 4.304688 98 L 188 98 L 188 260 L 4.304688 260 Z M 4.304688 98 " clip-rule="nonzero"/></clipPath><clipPath id="81e120beb3"><path d="M 187 13.265625 L 371.054688 13.265625 L 371.054688 176 L 187 176 Z M 187 13.265625 " clip-rule="nonzero"/></clipPath></defs><g clip-path="url(#f45f4730e5)"><path fill="#0652e9" d="M 127.796875 212.746094 L 127.796875 235.078125 L 26.699219 188.089844 L 26.699219 169.96875 L 127.796875 122.976562 L 127.796875 145.316406 L 51.34375 178.816406 L 51.34375 179.238281 Z M 187.835938 98.15625 L 18.773438 98.15625 C 10.789062 98.15625 4.320312 104.632812 4.320312 112.621094 L 4.320312 245.4375 C 4.320312 253.421875 10.789062 259.894531 18.773438 259.894531 L 140.90625 259.894531 L 187.835938 98.15625 " fill-opacity="1" fill-rule="nonzero"/></g><g clip-path="url(#81e120beb3)"><path fill="#62e1e9" d="M 348.699219 103.902344 L 247.605469 150.261719 L 247.605469 127.921875 L 325.742188 94.421875 L 325.742188 94 L 247.605469 60.492188 L 247.605469 38.160156 L 348.699219 84.515625 Z M 234.773438 13.339844 L 187.835938 175.078125 L 356.628906 175.078125 C 364.609375 175.078125 371.078125 168.605469 371.078125 160.617188 L 371.078125 27.800781 C 371.078125 19.816406 364.609375 13.339844 356.628906 13.339844 L 234.773438 13.339844 " fill-opacity="1" fill-rule="nonzero"/></g><g fill="#ffffff" fill-opacity="1"><g transform="translate(76.382376, 317.837382)"><g><path d="M 14.875 -16.9375 L 14.875 -21 L 2.238281 -21 L 2.238281 0 L 14.875 0 L 14.875 -4.058594 L 6.859375 -4.058594 L 6.859375 -8.46875 L 13.71875 -8.46875 L 13.71875 -12.527344 L 6.859375 -12.527344 L 6.859375 -16.9375 Z M 14.875 -16.9375 "/></g></g></g><g fill="#ffffff" fill-opacity="1"><g transform="translate(93.922126, 317.837382)"><g><path d="M 2.066406 0 L 8.996094 0 C 14.769531 0 19.492188 -4.691406 19.492188 -10.5 C 19.492188 -16.308594 14.769531 -21 8.996094 -21 L 2.066406 -21 Z M 6.683594 -4.09375 L 6.683594 -16.902344 L 8.960938 -16.902344 C 12.285156 -16.902344 14.875 -14.140625 14.875 -10.5 C 14.875 -6.859375 12.285156 -4.09375 8.960938 -4.09375 Z M 6.683594 -4.09375 "/></g></g></g><g fill="#ffffff" fill-opacity="1"><g transform="translate(115.941254, 317.837382)"><g><path d="M 2.238281 0 L 6.859375 0 L 6.859375 -21 L 2.238281 -21 Z M 2.238281 0 "/></g></g></g><g fill="#ffffff" fill-opacity="1"><g transform="translate(126.237008, 317.837382)"><g><path d="M 8.539062 0.28125 C 12.457031 0.28125 15.785156 -2.03125 15.785156 -5.949219 C 15.785156 -13.71875 6.125 -11.792969 6.125 -15.433594 C 6.125 -16.625 7.035156 -17.183594 8.152344 -17.183594 C 9.34375 -17.183594 10.535156 -16.519531 11.582031 -15.363281 L 14.664062 -18.304688 C 13.125 -20.089844 10.777344 -21.277344 8.1875 -21.277344 C 4.863281 -21.277344 1.46875 -19.285156 1.46875 -15.082031 C 1.46875 -7.945312 11.164062 -9.660156 11.164062 -5.984375 C 11.164062 -4.828125 10.183594 -4.058594 8.574219 -4.058594 C 6.648438 -4.058594 5.144531 -5.144531 4.375 -6.789062 L 0.558594 -4.410156 C 1.925781 -1.785156 4.863281 0.28125 8.539062 0.28125 Z M 8.539062 0.28125 "/></g></g></g><g fill="#ffffff" fill-opacity="1"><g transform="translate(144.056717, 317.837382)"><g><path d="M 12.074219 0.28125 C 18.058594 0.28125 22.851562 -4.550781 22.851562 -10.5 C 22.851562 -16.449219 18.058594 -21.277344 12.074219 -21.277344 C 6.125 -21.277344 1.292969 -16.449219 1.292969 -10.5 C 1.292969 -4.550781 6.125 0.28125 12.074219 0.28125 Z M 12.074219 -4.234375 C 8.539062 -4.234375 5.84375 -6.964844 5.84375 -10.5 C 5.84375 -14.035156 8.539062 -16.761719 12.074219 -16.761719 C 15.644531 -16.761719 18.339844 -14.035156 18.339844 -10.5 C 18.339844 -6.964844 15.644531 -4.234375 12.074219 -4.234375 Z M 12.074219 -4.234375 "/></g></g></g><g fill="#ffffff" fill-opacity="1"><g transform="translate(169.470364, 317.837382)"><g><path d="M 17.148438 -21 L 17.148438 -7.105469 L 6.824219 -21 L 2.066406 -21 L 2.066406 0 L 6.683594 0 L 6.683594 -13.929688 L 16.972656 0 L 21.734375 0 L 21.734375 -21 Z M 17.148438 -21 "/></g></g></g><g fill="#ffffff" fill-opacity="1"><g transform="translate(194.534068, 317.837382)"><g/></g></g><g fill="#ffffff" fill-opacity="1"><g transform="translate(204.164911, 317.837382)"><g><path d="M 6.683594 -4.09375 L 6.683594 -21 L 2.066406 -21 L 2.066406 0 L 13.648438 0 L 13.648438 -4.09375 Z M 6.683594 -4.09375 "/></g></g></g><g fill="#ffffff" fill-opacity="1"><g transform="translate(219.115014, 317.837382)"><g><path d="M 10.359375 -22.78125 L 13.296875 -22.78125 L 17.671875 -27.996094 L 13.4375 -27.996094 Z M 12.074219 0.28125 C 18.058594 0.28125 22.851562 -4.550781 22.851562 -10.5 C 22.851562 -16.449219 18.058594 -21.277344 12.074219 -21.277344 C 6.125 -21.277344 1.292969 -16.449219 1.292969 -10.5 C 1.292969 -4.550781 6.125 0.28125 12.074219 0.28125 Z M 12.074219 -4.234375 C 8.539062 -4.234375 5.84375 -6.964844 5.84375 -10.5 C 5.84375 -14.035156 8.539062 -16.761719 12.074219 -16.761719 C 15.644531 -16.761719 18.339844 -14.035156 18.339844 -10.5 C 18.339844 -6.964844 15.644531 -4.234375 12.074219 -4.234375 Z M 12.074219 -4.234375 "/></g></g></g><g fill="#ffffff" fill-opacity="1"><g transform="translate(244.528666, 317.837382)"><g><path d="M 10.988281 -21 L 2.066406 -21 L 2.066406 0 L 6.683594 0 L 6.683594 -8.503906 L 10.988281 -8.503906 C 14.523438 -8.503906 17.253906 -11.128906 17.253906 -14.664062 C 17.253906 -18.164062 14.523438 -21 10.988281 -21 Z M 10.253906 -12.320312 L 6.683594 -12.320312 L 6.683594 -16.9375 L 10.253906 -16.9375 C 11.722656 -16.9375 12.84375 -15.992188 12.84375 -14.628906 C 12.84375 -13.230469 11.722656 -12.320312 10.253906 -12.320312 Z M 10.253906 -12.320312 "/></g></g></g><g fill="#ffffff" fill-opacity="1"><g transform="translate(263.153261, 317.837382)"><g><path d="M 14.875 -16.9375 L 14.875 -21 L 2.238281 -21 L 2.238281 0 L 14.875 0 L 14.875 -4.058594 L 6.859375 -4.058594 L 6.859375 -8.46875 L 13.71875 -8.46875 L 13.71875 -12.527344 L 6.859375 -12.527344 L 6.859375 -16.9375 Z M 14.875 -16.9375 "/></g></g></g><g fill="#ffffff" fill-opacity="1"><g transform="translate(280.693001, 317.837382)"><g><path d="M 16.902344 -21 L 1.679688 -21 L 1.679688 -16.902344 L 9.730469 -16.902344 L 0.804688 0 L 16.902344 0 L 16.902344 -4.09375 L 8.050781 -4.09375 Z M 16.902344 -21 "/></g></g></g></svg>