<svg xmlns="http://www.w3.org/2000/svg" xmlns:xlink="http://www.w3.org/1999/xlink" width="300" zoomAndPan="magnify" viewBox="0 0 224.87999 112.499997" height="150" preserveAspectRatio="xMidYMid meet" version="1.0"><defs><clipPath id="b383e18a1e"><path d="M 69.238281 10.308594 L 155.851562 10.308594 L 155.851562 101.402344 L 69.238281 101.402344 Z M 69.238281 10.308594 " clip-rule="nonzero"/></clipPath><clipPath id="3767e076d6"><path d="M 111 10.308594 L 155.851562 10.308594 L 155.851562 101.402344 L 111 101.402344 Z M 111 10.308594 " clip-rule="nonzero"/></clipPath></defs><g clip-path="url(#b383e18a1e)"><path fill="#e23237" d="M 69.34375 25.40625 L 111.972656 10.304688 L 155.746094 25.140625 L 148.664062 81.21875 L 111.972656 101.417969 L 75.859375 81.484375 L 69.34375 25.410156 Z M 69.34375 25.40625 " fill-opacity="1" fill-rule="nonzero"/></g><g clip-path="url(#3767e076d6)"><path fill="#b52e31" d="M 155.746094 25.140625 L 111.972656 10.304688 L 111.972656 101.414062 L 148.664062 81.246094 L 155.746094 25.140625 L 155.746094 25.136719 Z M 155.746094 25.140625 " fill-opacity="1" fill-rule="nonzero"/></g><path fill="#ffffff" d="M 112.042969 20.945312 L 85.476562 79.703125 L 95.402344 79.535156 L 100.734375 66.28125 L 124.5625 66.28125 L 130.402344 79.703125 L 139.886719 79.871094 Z M 112.109375 39.769531 L 121.085938 58.429688 L 104.210938 58.429688 Z M 112.109375 39.769531 " fill-opacity="1" fill-rule="nonzero"/></svg>