<svg xmlns="http://www.w3.org/2000/svg" xmlns:xlink="http://www.w3.org/1999/xlink" width="300" zoomAndPan="magnify" viewBox="0 0 224.87999 112.499997" height="150" preserveAspectRatio="xMidYMid meet" version="1.0"><defs><clipPath id="22f2f6bfc8"><path d="M 72.34375 11.199219 L 152.238281 11.199219 L 152.238281 100.800781 L 72.34375 100.800781 Z M 72.34375 11.199219 " clip-rule="nonzero"/></clipPath></defs><g clip-path="url(#22f2f6bfc8)"><path fill="#0277bd" d="M 152.230469 11.199219 L 72.351562 11.199219 L 79.398438 91.371094 L 112.289062 100.800781 L 145.183594 91.371094 Z M 152.230469 11.199219 " fill-opacity="1" fill-rule="nonzero"/></g><path fill="#039be5" d="M 112.289062 18.273438 L 112.289062 93.492188 L 138.605469 85.945312 L 144.476562 18.273438 Z M 112.289062 18.273438 " fill-opacity="1" fill-rule="nonzero"/><path fill="#ffffff" d="M 133.667969 30.0625 L 112.289062 30.0625 L 112.289062 39.496094 L 123.800781 39.496094 L 123.097656 48.925781 L 112.289062 48.925781 L 112.289062 58.359375 L 122.628906 58.359375 L 121.921875 68.96875 L 112.289062 72.269531 L 112.289062 82.175781 L 130.851562 76.042969 L 132.496094 48.925781 Z M 133.667969 30.0625 " fill-opacity="1" fill-rule="nonzero"/><path fill="#eeeeee" d="M 112.289062 30.0625 L 112.289062 39.496094 L 91.382812 39.496094 L 90.675781 30.0625 Z M 101.484375 48.925781 L 101.953125 58.359375 L 112.289062 58.359375 L 112.289062 48.925781 Z M 102.421875 63.074219 L 93.027344 63.074219 L 93.730469 76.042969 L 112.289062 82.175781 L 112.289062 72.269531 L 102.660156 68.96875 Z M 102.421875 63.074219 " fill-opacity="1" fill-rule="nonzero"/></svg>