<svg xmlns="http://www.w3.org/2000/svg" xmlns:xlink="http://www.w3.org/1999/xlink" width="300" zoomAndPan="magnify" viewBox="0 0 224.87999 112.499997" height="150" preserveAspectRatio="xMidYMid meet" version="1.0"><defs><clipPath id="54eb917aef"><path d="M 73.179688 11.199219 L 151.578125 11.199219 L 151.578125 100.800781 L 73.179688 100.800781 Z M 73.179688 11.199219 " clip-rule="nonzero"/></clipPath></defs><g clip-path="url(#54eb917aef)"><path fill="#e44d26" d="M 80.296875 91.644531 L 73.15625 11.453125 L 151.601562 11.453125 L 144.457031 91.636719 L 112.328125 100.550781 Z M 80.296875 91.644531 " fill-opacity="1" fill-rule="nonzero"/></g><path fill="#f16529" d="M 138.335938 86.527344 L 144.445312 18.011719 L 112.378906 18.011719 L 112.378906 93.738281 Z M 138.335938 86.527344 " fill-opacity="1" fill-rule="nonzero"/><path fill="#ebebeb" d="M 112.34375 27.847656 L 87.75 27.847656 L 90.402344 57.589844 L 112.378906 57.589844 L 112.378906 47.753906 L 99.382812 47.753906 L 98.484375 37.683594 L 112.378906 37.683594 L 112.378906 27.847656 Z M 112.378906 73.265625 L 112.335938 73.273438 L 101.398438 70.316406 L 100.703125 62.476562 L 90.839844 62.476562 L 92.21875 77.917969 L 112.335938 83.484375 L 112.378906 83.472656 Z M 112.378906 73.265625 " fill-opacity="1" fill-rule="nonzero"/><path fill="#ffffff" d="M 112.34375 57.589844 L 124.4375 57.589844 L 123.328125 70.339844 L 112.375 73.300781 L 112.375 83.53125 L 132.507812 77.945312 L 135.203125 47.75 L 112.378906 47.75 Z M 136.710938 30.484375 L 136.945312 27.847656 L 112.339844 27.847656 L 112.339844 37.679688 L 136.0625 37.679688 L 136.253906 35.46875 Z M 136.710938 30.484375 " fill-opacity="1" fill-rule="nonzero"/></svg>