<svg xmlns="http://www.w3.org/2000/svg" xmlns:xlink="http://www.w3.org/1999/xlink" width="300" zoomAndPan="magnify" viewBox="0 0 224.87999 112.499997" height="150" preserveAspectRatio="xMidYMid meet" version="1.0"><defs><clipPath id="09fc773ed0"><path d="M 67 10.65625 L 158.816406 10.65625 L 158.816406 102.496094 L 67 102.496094 Z M 67 10.65625 " clip-rule="nonzero"/></clipPath><clipPath id="09fc52afff"><path d="M 67 10.65625 L 114 10.65625 L 114 102.496094 L 67 102.496094 Z M 67 10.65625 " clip-rule="nonzero"/></clipPath></defs><g clip-path="url(#09fc773ed0)"><path fill="#ffc44d" d="M 70.449219 10.4375 C 69.515625 10.4375 68.625 10.839844 68.007812 11.539062 C 67.390625 12.242188 67.101562 13.171875 67.21875 14.097656 L 75.898438 83.558594 C 76.035156 84.636719 76.699219 85.578125 77.675781 86.066406 L 112.402344 103.429688 C 113.320312 103.890625 114.398438 103.890625 115.316406 103.429688 L 150.046875 86.066406 C 151.019531 85.578125 151.683594 84.636719 151.820312 83.558594 L 160.503906 14.097656 C 160.617188 13.171875 160.332031 12.242188 159.710938 11.539062 C 159.09375 10.839844 158.207031 10.4375 157.273438 10.4375 Z M 70.449219 10.4375 " fill-opacity="1" fill-rule="nonzero"/></g><g clip-path="url(#09fc52afff)"><path fill="#e5b045" d="M 113.859375 10.4375 L 113.859375 103.773438 C 113.359375 103.773438 112.863281 103.660156 112.402344 103.429688 L 77.675781 86.066406 C 76.699219 85.578125 76.035156 84.636719 75.898438 83.558594 L 67.21875 14.097656 C 67.101562 13.171875 67.390625 12.242188 68.007812 11.539062 C 68.625 10.839844 69.515625 10.4375 70.449219 10.4375 Z M 113.859375 10.4375 " fill-opacity="1" fill-rule="evenodd"/></g><path fill="#cfd8dc" d="M 107.347656 23.460938 C 109.148438 23.460938 110.605469 24.921875 110.605469 26.71875 L 110.605469 83.152344 C 110.605469 84.316406 109.988281 85.386719 108.984375 85.96875 C 107.980469 86.550781 106.742188 86.554688 105.734375 85.980469 L 90.539062 77.296875 C 88.976562 76.40625 88.4375 74.417969 89.328125 72.855469 C 90.21875 71.296875 92.207031 70.753906 93.769531 71.644531 L 104.09375 77.542969 L 104.09375 26.71875 C 104.09375 24.921875 105.550781 23.460938 107.347656 23.460938 Z M 107.347656 23.460938 " fill-opacity="1" fill-rule="evenodd"/><path fill="#eceff1" d="M 117.117188 26.71875 C 117.117188 24.921875 118.574219 23.460938 120.371094 23.460938 L 142.078125 23.460938 C 143.875 23.460938 145.335938 24.921875 145.335938 26.71875 C 145.335938 28.515625 143.875 29.972656 142.078125 29.972656 L 123.628906 29.972656 L 123.628906 50.878906 L 139.203125 47.417969 C 140.214844 47.191406 141.277344 47.464844 142.058594 48.148438 C 142.839844 48.835938 143.246094 49.855469 143.148438 50.890625 L 140.980469 74.765625 C 140.878906 75.890625 140.203125 76.878906 139.195312 77.382812 L 121.828125 86.066406 C 120.21875 86.871094 118.265625 86.21875 117.460938 84.609375 C 116.65625 83 117.308594 81.046875 118.917969 80.242188 L 134.660156 72.371094 L 136.261719 54.742188 L 121.078125 58.113281 C 120.113281 58.328125 119.105469 58.09375 118.335938 57.476562 C 117.566406 56.859375 117.117188 55.921875 117.117188 54.9375 Z M 117.117188 26.71875 " fill-opacity="1" fill-rule="evenodd"/></svg>