<svg xmlns="http://www.w3.org/2000/svg" xmlns:xlink="http://www.w3.org/1999/xlink" width="300" zoomAndPan="magnify" viewBox="0 0 224.87999 112.499997" height="150" preserveAspectRatio="xMidYMid meet" version="1.0"><defs><clipPath id="68fccc58e6"><path d="M 100 11.199219 L 124 11.199219 L 124 60 L 100 60 Z M 100 11.199219 " clip-rule="nonzero"/></clipPath><clipPath id="1cc3ecd892"><path d="M 91 91 L 146 91 L 146 100.800781 L 91 100.800781 Z M 91 91 " clip-rule="nonzero"/></clipPath></defs><path fill="#5382a1" d="M 100.882812 79.90625 C 100.882812 79.90625 97.5 81.882812 103.292969 82.550781 C 110.308594 83.351562 113.894531 83.238281 121.625 81.769531 C 121.625 81.769531 123.65625 83.046875 126.496094 84.15625 C 109.164062 91.609375 87.269531 83.722656 100.882812 79.90625 " fill-opacity="1" fill-rule="nonzero"/><path fill="#5382a1" d="M 98.765625 70.179688 C 98.765625 70.179688 94.972656 72.996094 100.765625 73.601562 C 108.261719 74.375 114.179688 74.4375 124.421875 72.457031 C 124.421875 72.457031 125.839844 73.902344 128.066406 74.6875 C 107.109375 80.835938 83.769531 75.175781 98.765625 70.179688 " fill-opacity="1" fill-rule="nonzero"/><path fill="#e76f00" d="M 116.621094 53.675781 C 120.890625 58.613281 115.496094 63.050781 115.496094 63.050781 C 115.496094 63.050781 126.34375 57.433594 121.363281 50.398438 C 116.710938 43.839844 113.144531 40.578125 132.453125 29.339844 C 132.453125 29.339844 102.144531 36.9375 116.621094 53.675781 " fill-opacity="1" fill-rule="nonzero"/><path fill="#5382a1" d="M 139.542969 87.101562 C 139.542969 87.101562 142.046875 89.171875 136.785156 90.773438 C 126.78125 93.816406 95.144531 94.734375 86.359375 90.894531 C 83.199219 89.515625 89.125 87.601562 90.988281 87.199219 C 92.929688 86.777344 94.042969 86.855469 94.042969 86.855469 C 90.527344 84.371094 71.335938 91.730469 84.292969 93.839844 C 119.628906 99.589844 148.710938 91.25 139.542969 87.101562 " fill-opacity="1" fill-rule="nonzero"/><path fill="#5382a1" d="M 102.511719 60.097656 C 102.511719 60.097656 86.421875 63.933594 96.8125 65.328125 C 101.203125 65.917969 109.949219 65.785156 118.097656 65.097656 C 124.757812 64.535156 131.445312 63.335938 131.445312 63.335938 C 131.445312 63.335938 129.097656 64.347656 127.398438 65.507812 C 111.054688 69.824219 79.488281 67.816406 88.578125 63.40625 C 96.261719 59.675781 102.511719 60.097656 102.511719 60.097656 " fill-opacity="1" fill-rule="nonzero"/><path fill="#5382a1" d="M 131.378906 76.289062 C 147.988281 67.628906 140.304688 59.304688 134.945312 60.425781 C 133.632812 60.699219 133.046875 60.9375 133.046875 60.9375 C 133.046875 60.9375 133.535156 60.171875 134.46875 59.839844 C 145.070312 56.097656 153.230469 70.875 131.042969 76.726562 C 131.042969 76.726562 131.300781 76.496094 131.378906 76.289062 " fill-opacity="1" fill-rule="nonzero"/><g clip-path="url(#68fccc58e6)"><path fill="#e76f00" d="M 121.363281 11.191406 C 121.363281 11.191406 130.5625 20.429688 112.636719 34.628906 C 98.265625 46.019531 109.359375 52.515625 112.632812 59.9375 C 104.242188 52.339844 98.085938 45.652344 102.214844 39.429688 C 108.277344 30.292969 125.074219 25.863281 121.363281 11.191406 " fill-opacity="1" fill-rule="nonzero"/></g><g clip-path="url(#1cc3ecd892)"><path fill="#5382a1" d="M 104.144531 99.765625 C 120.089844 100.789062 144.570312 99.195312 145.152344 91.625 C 145.152344 91.625 144.035156 94.492188 131.976562 96.773438 C 118.367188 99.34375 101.582031 99.046875 91.625 97.394531 C 91.625 97.394531 93.664062 99.089844 104.144531 99.765625 " fill-opacity="1" fill-rule="nonzero"/></g></svg>