<svg xmlns="http://www.w3.org/2000/svg" xmlns:xlink="http://www.w3.org/1999/xlink" width="300" zoomAndPan="magnify" viewBox="0 0 224.87999 112.499997" height="150" preserveAspectRatio="xMidYMid meet" version="1.0"><defs><clipPath id="ccf744b56b"><path d="M 38.160156 11.199219 L 186.75 11.199219 L 186.75 100.800781 L 38.160156 100.800781 Z M 38.160156 11.199219 " clip-rule="nonzero"/></clipPath></defs><g clip-path="url(#ccf744b56b)"><path fill="#000000" d="M 73.230469 34.566406 L 101.25 34.566406 L 101.25 36.792969 L 75.796875 36.792969 L 75.796875 53.550781 L 99.730469 53.550781 L 99.730469 55.777344 L 75.796875 55.777344 L 75.796875 74.171875 L 101.539062 74.171875 L 101.539062 76.402344 L 73.230469 76.402344 Z M 103.757812 34.566406 L 106.734375 34.566406 L 119.925781 52.964844 L 133.410156 34.566406 L 151.75 11.199219 L 121.617188 54.898438 L 137.148438 76.402344 L 134.050781 76.402344 L 119.925781 56.832031 L 105.742188 76.402344 L 102.707031 76.402344 L 118.347656 54.898438 Z M 138.253906 36.792969 L 138.253906 34.566406 L 170.183594 34.566406 L 170.183594 36.792969 L 155.476562 36.792969 L 155.476562 76.402344 L 152.90625 76.402344 L 152.90625 36.792969 Z M 38.179688 34.566406 L 41.390625 34.566406 L 85.65625 100.796875 L 67.363281 76.402344 L 40.863281 37.734375 L 40.75 76.402344 L 38.179688 76.402344 Z M 169.921875 73.503906 C 169.402344 73.503906 169.007812 73.09375 169.007812 72.570312 C 169.007812 72.046875 169.402344 71.640625 169.921875 71.640625 C 170.453125 71.640625 170.84375 72.046875 170.84375 72.570312 C 170.84375 73.09375 170.453125 73.503906 169.921875 73.503906 Z M 172.449219 71.050781 L 173.824219 71.050781 C 173.839844 71.796875 174.386719 72.292969 175.183594 72.292969 C 176.078125 72.292969 176.582031 71.757812 176.582031 70.75 L 176.582031 64.371094 L 177.984375 64.371094 L 177.984375 70.757812 C 177.984375 72.570312 176.933594 73.613281 175.199219 73.613281 C 173.566406 73.613281 172.449219 72.601562 172.449219 71.050781 Z M 179.8125 70.96875 L 181.199219 70.96875 C 181.316406 71.828125 182.15625 72.371094 183.363281 72.371094 C 184.484375 72.371094 185.308594 71.789062 185.308594 70.988281 C 185.308594 70.300781 184.785156 69.886719 183.59375 69.605469 L 182.429688 69.324219 C 180.800781 68.945312 180.058594 68.15625 180.058594 66.828125 C 180.058594 65.222656 181.371094 64.15625 183.335938 64.15625 C 185.167969 64.15625 186.5 65.222656 186.582031 66.742188 L 185.222656 66.742188 C 185.09375 65.910156 184.367188 65.390625 183.316406 65.390625 C 182.210938 65.390625 181.472656 65.925781 181.472656 66.738281 C 181.472656 67.378906 181.949219 67.75 183.125 68.023438 L 184.117188 68.269531 C 185.964844 68.699219 186.726562 69.453125 186.726562 70.804688 C 186.726562 72.53125 185.390625 73.613281 183.253906 73.613281 C 181.257812 73.613281 179.914062 72.585938 179.8125 70.96875 Z M 179.8125 70.96875 " fill-opacity="1" fill-rule="nonzero"/></g></svg>