<svg xmlns="http://www.w3.org/2000/svg" xmlns:xlink="http://www.w3.org/1999/xlink" width="300" zoomAndPan="magnify" viewBox="0 0 224.87999 112.499997" height="150" preserveAspectRatio="xMidYMid meet" version="1.0"><defs><clipPath id="e01a3515b9"><path d="M 27.09375 11.199219 L 198.082031 11.199219 L 198.082031 101.546875 L 27.09375 101.546875 Z M 27.09375 11.199219 " clip-rule="nonzero"/></clipPath><clipPath id="e04bbbe6f9"><path d="M 198.082031 56.375 C 198.082031 57.113281 198.050781 57.847656 197.980469 58.585938 C 197.910156 59.320312 197.808594 60.054688 197.671875 60.789062 C 197.535156 61.523438 197.363281 62.253906 197.15625 62.984375 C 196.953125 63.714844 196.714844 64.441406 196.441406 65.164062 C 196.167969 65.886719 195.859375 66.605469 195.519531 67.320312 C 195.179688 68.035156 194.808594 68.746094 194.402344 69.449219 C 193.996094 70.15625 193.558594 70.855469 193.085938 71.550781 C 192.613281 72.246094 192.109375 72.933594 191.574219 73.613281 C 191.039062 74.292969 190.472656 74.96875 189.875 75.632812 C 189.277344 76.300781 188.648438 76.960938 187.988281 77.609375 C 187.328125 78.257812 186.640625 78.902344 185.921875 79.53125 C 185.199219 80.164062 184.453125 80.789062 183.675781 81.402344 C 182.898438 82.015625 182.09375 82.617188 181.257812 83.207031 C 180.425781 83.800781 179.566406 84.382812 178.675781 84.953125 C 177.789062 85.519531 176.875 86.078125 175.9375 86.625 C 174.996094 87.171875 174.03125 87.707031 173.042969 88.226562 C 172.054688 88.75 171.039062 89.257812 170.003906 89.75 C 168.964844 90.246094 167.90625 90.726562 166.824219 91.195312 C 165.746094 91.664062 164.640625 92.117188 163.519531 92.554688 C 162.394531 92.996094 161.25 93.417969 160.085938 93.828125 C 158.921875 94.238281 157.742188 94.632812 156.542969 95.011719 C 155.339844 95.390625 154.125 95.753906 152.890625 96.101562 C 151.65625 96.449219 150.40625 96.78125 149.140625 97.097656 C 147.878906 97.410156 146.597656 97.710938 145.304688 97.992188 C 144.011719 98.273438 142.707031 98.539062 141.390625 98.789062 C 140.074219 99.035156 138.746094 99.265625 137.40625 99.480469 C 136.066406 99.695312 134.71875 99.890625 133.363281 100.070312 C 132.003906 100.25 130.640625 100.410156 129.269531 100.554688 C 127.894531 100.699219 126.515625 100.824219 125.132812 100.933594 C 123.75 101.042969 122.359375 101.132812 120.96875 101.203125 C 119.574219 101.277344 118.179688 101.332031 116.785156 101.367188 C 115.386719 101.402344 113.988281 101.421875 112.589844 101.421875 C 111.1875 101.421875 109.789062 101.402344 108.394531 101.367188 C 106.996094 101.332031 105.601562 101.277344 104.207031 101.203125 C 102.816406 101.132812 101.429688 101.042969 100.042969 100.933594 C 98.660156 100.824219 97.28125 100.699219 95.910156 100.554688 C 94.535156 100.410156 93.171875 100.25 91.816406 100.070312 C 90.457031 99.890625 89.109375 99.695312 87.769531 99.480469 C 86.433594 99.265625 85.101562 99.035156 83.785156 98.789062 C 82.46875 98.539062 81.164062 98.273438 79.871094 97.992188 C 78.578125 97.710938 77.300781 97.410156 76.035156 97.097656 C 74.769531 96.78125 73.519531 96.449219 72.285156 96.101562 C 71.050781 95.753906 69.835938 95.390625 68.636719 95.011719 C 67.433594 94.632812 66.253906 94.238281 65.089844 93.828125 C 63.925781 93.417969 62.78125 92.996094 61.660156 92.554688 C 60.535156 92.117188 59.433594 91.664062 58.351562 91.195312 C 57.269531 90.726562 56.210938 90.246094 55.171875 89.75 C 54.136719 89.257812 53.125 88.75 52.132812 88.226562 C 51.144531 87.707031 50.179688 87.171875 49.242188 86.625 C 48.300781 86.078125 47.386719 85.519531 46.5 84.953125 C 45.613281 84.382812 44.75 83.800781 43.917969 83.207031 C 43.085938 82.617188 42.28125 82.015625 41.503906 81.402344 C 40.726562 80.789062 39.976562 80.164062 39.257812 79.53125 C 38.539062 78.902344 37.847656 78.257812 37.1875 77.609375 C 36.527344 76.960938 35.898438 76.300781 35.300781 75.632812 C 34.703125 74.96875 34.136719 74.292969 33.601562 73.613281 C 33.066406 72.933594 32.5625 72.246094 32.089844 71.550781 C 31.621094 70.855469 31.179688 70.15625 30.773438 69.449219 C 30.367188 68.746094 29.996094 68.035156 29.65625 67.320312 C 29.316406 66.605469 29.007812 65.886719 28.734375 65.164062 C 28.464844 64.441406 28.222656 63.714844 28.019531 62.984375 C 27.8125 62.253906 27.640625 61.523438 27.503906 60.789062 C 27.367188 60.054688 27.265625 59.320312 27.195312 58.585938 C 27.128906 57.847656 27.09375 57.113281 27.09375 56.375 C 27.09375 55.636719 27.128906 54.902344 27.195312 54.164062 C 27.265625 53.429688 27.367188 52.691406 27.503906 51.960938 C 27.640625 51.226562 27.8125 50.492188 28.019531 49.765625 C 28.222656 49.035156 28.464844 48.308594 28.734375 47.585938 C 29.007812 46.863281 29.316406 46.144531 29.65625 45.429688 C 29.996094 44.714844 30.367188 44.003906 30.773438 43.296875 C 31.179688 42.59375 31.621094 41.894531 32.089844 41.199219 C 32.5625 40.503906 33.066406 39.816406 33.601562 39.136719 C 34.136719 38.453125 34.703125 37.78125 35.300781 37.113281 C 35.898438 36.449219 36.527344 35.789062 37.1875 35.140625 C 37.847656 34.488281 38.539062 33.847656 39.257812 33.214844 C 39.976562 32.582031 40.726562 31.960938 41.503906 31.347656 C 42.28125 30.734375 43.085938 30.132812 43.917969 29.539062 C 44.75 28.949219 45.613281 28.367188 46.5 27.796875 C 47.386719 27.226562 48.300781 26.667969 49.242188 26.125 C 50.179688 25.578125 51.144531 25.042969 52.132812 24.523438 C 53.125 24 54.136719 23.492188 55.171875 22.996094 C 56.210938 22.503906 57.269531 22.019531 58.351562 21.554688 C 59.433594 21.085938 60.535156 20.632812 61.660156 20.191406 C 62.78125 19.753906 63.925781 19.328125 65.089844 18.917969 C 66.253906 18.511719 67.433594 18.117188 68.636719 17.738281 C 69.835938 17.359375 71.050781 16.996094 72.285156 16.648438 C 73.519531 16.300781 74.769531 15.96875 76.035156 15.652344 C 77.300781 15.335938 78.578125 15.039062 79.871094 14.757812 C 81.164062 14.476562 82.46875 14.210938 83.785156 13.960938 C 85.101562 13.710938 86.433594 13.480469 87.769531 13.269531 C 89.109375 13.054688 90.457031 12.855469 91.816406 12.679688 C 93.171875 12.5 94.535156 12.335938 95.910156 12.195312 C 97.28125 12.050781 98.660156 11.921875 100.042969 11.816406 C 101.429688 11.707031 102.816406 11.617188 104.207031 11.542969 C 105.601562 11.472656 106.996094 11.417969 108.394531 11.382812 C 109.789062 11.347656 111.1875 11.328125 112.589844 11.328125 C 113.988281 11.328125 115.386719 11.347656 116.785156 11.382812 C 118.179688 11.417969 119.574219 11.472656 120.96875 11.542969 C 122.359375 11.617188 123.75 11.707031 125.132812 11.816406 C 126.515625 11.921875 127.894531 12.050781 129.269531 12.195312 C 130.640625 12.335938 132.003906 12.5 133.363281 12.679688 C 134.71875 12.855469 136.066406 13.054688 137.40625 13.269531 C 138.746094 13.480469 140.074219 13.710938 141.390625 13.960938 C 142.707031 14.210938 144.011719 14.476562 145.304688 14.757812 C 146.597656 15.039062 147.878906 15.335938 149.140625 15.652344 C 150.40625 15.96875 151.65625 16.300781 152.890625 16.648438 C 154.125 16.996094 155.339844 17.359375 156.542969 17.738281 C 157.742188 18.117188 158.921875 18.511719 160.085938 18.917969 C 161.25 19.328125 162.394531 19.753906 163.519531 20.191406 C 164.640625 20.632812 165.746094 21.085938 166.824219 21.554688 C 167.90625 22.019531 168.964844 22.503906 170.003906 22.996094 C 171.039062 23.492188 172.054688 24 173.042969 24.523438 C 174.03125 25.042969 174.996094 25.578125 175.9375 26.125 C 176.875 26.667969 177.789062 27.226562 178.675781 27.796875 C 179.566406 28.367188 180.425781 28.949219 181.257812 29.539062 C 182.09375 30.132812 182.898438 30.734375 183.675781 31.347656 C 184.453125 31.960938 185.199219 32.582031 185.921875 33.214844 C 186.640625 33.847656 187.328125 34.488281 187.988281 35.140625 C 188.648438 35.789062 189.277344 36.449219 189.875 37.113281 C 190.472656 37.78125 191.039062 38.453125 191.574219 39.136719 C 192.109375 39.816406 192.613281 40.503906 193.085938 41.199219 C 193.558594 41.894531 193.996094 42.59375 194.402344 43.296875 C 194.808594 44.003906 195.179688 44.714844 195.519531 45.429688 C 195.859375 46.144531 196.167969 46.863281 196.441406 47.585938 C 196.714844 48.308594 196.953125 49.035156 197.15625 49.765625 C 197.363281 50.492188 197.535156 51.226562 197.671875 51.960938 C 197.808594 52.691406 197.910156 53.429688 197.980469 54.164062 C 198.050781 54.902344 198.082031 55.636719 198.082031 56.375 Z M 198.082031 56.375 " clip-rule="nonzero"/></clipPath><radialGradient gradientTransform="matrix(0.998947, 0, 0, 1.001053, 78.166063, 66.158821)" gradientUnits="userSpaceOnUse" r="112.395197" cx="0.258993" id="409e6ac564" cy="-38.947941" fx="0.258993" fy="-38.947941"><stop stop-opacity="1" stop-color="rgb(99.725342%, 99.772644%, 99.839783%)" offset="0"/><stop stop-opacity="1" stop-color="rgb(99.176025%, 99.319458%, 99.520874%)" offset="0.00390625"/><stop stop-opacity="1" stop-color="rgb(98.628235%, 98.866272%, 99.201965%)" offset="0.0078125"/><stop stop-opacity="1" stop-color="rgb(98.078918%, 98.413086%, 98.883057%)" offset="0.0117188"/><stop stop-opacity="1" stop-color="rgb(97.531128%, 97.9599%, 98.564148%)" offset="0.015625"/><stop stop-opacity="1" stop-color="rgb(96.981812%, 97.506714%, 98.245239%)" offset="0.0195312"/><stop stop-opacity="1" stop-color="rgb(96.434021%, 97.053528%, 97.926331%)" offset="0.0234375"/><stop stop-opacity="1" stop-color="rgb(95.88623%, 96.600342%, 97.607422%)" offset="0.0273438"/><stop stop-opacity="1" stop-color="rgb(95.336914%, 96.147156%, 97.288513%)" offset="0.03125"/><stop stop-opacity="1" stop-color="rgb(94.789124%, 95.69397%, 96.97113%)" offset="0.0351562"/><stop stop-opacity="1" stop-color="rgb(94.239807%, 95.240784%, 96.652222%)" offset="0.0390625"/><stop stop-opacity="1" stop-color="rgb(93.692017%, 94.787598%, 96.333313%)" offset="0.0429688"/><stop stop-opacity="1" stop-color="rgb(93.1427%, 94.334412%, 96.014404%)" offset="0.046875"/><stop stop-opacity="1" stop-color="rgb(92.59491%, 93.881226%, 95.695496%)" offset="0.0507812"/><stop stop-opacity="1" stop-color="rgb(92.047119%, 93.42804%, 95.376587%)" offset="0.0546875"/><stop stop-opacity="1" stop-color="rgb(91.497803%, 92.974854%, 95.057678%)" offset="0.0585938"/><stop stop-opacity="1" stop-color="rgb(90.950012%, 92.521667%, 94.73877%)" offset="0.0625"/><stop stop-opacity="1" stop-color="rgb(90.400696%, 92.068481%, 94.419861%)" offset="0.0664062"/><stop stop-opacity="1" stop-color="rgb(89.852905%, 91.615295%, 94.100952%)" offset="0.0703125"/><stop stop-opacity="1" stop-color="rgb(89.303589%, 91.162109%, 93.783569%)" offset="0.0742188"/><stop stop-opacity="1" stop-color="rgb(88.755798%, 90.708923%, 93.464661%)" offset="0.078125"/><stop stop-opacity="1" stop-color="rgb(88.208008%, 90.255737%, 93.145752%)" offset="0.0820312"/><stop stop-opacity="1" stop-color="rgb(87.658691%, 89.802551%, 92.826843%)" offset="0.0859375"/><stop stop-opacity="1" stop-color="rgb(87.110901%, 89.349365%, 92.507935%)" offset="0.0898438"/><stop stop-opacity="1" stop-color="rgb(86.561584%, 88.897705%, 92.189026%)" offset="0.09375"/><stop stop-opacity="1" stop-color="rgb(86.013794%, 88.444519%, 91.870117%)" offset="0.0976562"/><stop stop-opacity="1" stop-color="rgb(85.464478%, 87.991333%, 91.551208%)" offset="0.101562"/><stop stop-opacity="1" stop-color="rgb(84.916687%, 87.538147%, 91.2323%)" offset="0.105469"/><stop stop-opacity="1" stop-color="rgb(84.368896%, 87.084961%, 90.914917%)" offset="0.109375"/><stop stop-opacity="1" stop-color="rgb(83.81958%, 86.631775%, 90.596008%)" offset="0.113281"/><stop stop-opacity="1" stop-color="rgb(83.27179%, 86.178589%, 90.2771%)" offset="0.117188"/><stop stop-opacity="1" stop-color="rgb(82.722473%, 85.725403%, 89.958191%)" offset="0.121094"/><stop stop-opacity="1" stop-color="rgb(82.174683%, 85.272217%, 89.639282%)" offset="0.125"/><stop stop-opacity="1" stop-color="rgb(81.626892%, 84.819031%, 89.320374%)" offset="0.128906"/><stop stop-opacity="1" stop-color="rgb(81.077576%, 84.365845%, 89.001465%)" offset="0.132812"/><stop stop-opacity="1" stop-color="rgb(80.529785%, 83.912659%, 88.682556%)" offset="0.136719"/><stop stop-opacity="1" stop-color="rgb(79.980469%, 83.459473%, 88.363647%)" offset="0.140625"/><stop stop-opacity="1" stop-color="rgb(79.432678%, 83.006287%, 88.044739%)" offset="0.144531"/><stop stop-opacity="1" stop-color="rgb(78.883362%, 82.553101%, 87.727356%)" offset="0.148438"/><stop stop-opacity="1" stop-color="rgb(78.335571%, 82.099915%, 87.408447%)" offset="0.152344"/><stop stop-opacity="1" stop-color="rgb(77.787781%, 81.646729%, 87.089539%)" offset="0.15625"/><stop stop-opacity="1" stop-color="rgb(77.238464%, 81.193542%, 86.77063%)" offset="0.160156"/><stop stop-opacity="1" stop-color="rgb(76.690674%, 80.740356%, 86.451721%)" offset="0.164062"/><stop stop-opacity="1" stop-color="rgb(76.141357%, 80.28717%, 86.132812%)" offset="0.167969"/><stop stop-opacity="1" stop-color="rgb(75.593567%, 79.833984%, 85.813904%)" offset="0.171875"/><stop stop-opacity="1" stop-color="rgb(75.04425%, 79.380798%, 85.494995%)" offset="0.175781"/><stop stop-opacity="1" stop-color="rgb(74.49646%, 78.927612%, 85.176086%)" offset="0.179688"/><stop stop-opacity="1" stop-color="rgb(73.948669%, 78.474426%, 84.857178%)" offset="0.183594"/><stop stop-opacity="1" stop-color="rgb(73.399353%, 78.02124%, 84.539795%)" offset="0.1875"/><stop stop-opacity="1" stop-color="rgb(72.851562%, 77.56958%, 84.220886%)" offset="0.191406"/><stop stop-opacity="1" stop-color="rgb(72.302246%, 77.116394%, 83.901978%)" offset="0.195312"/><stop stop-opacity="1" stop-color="rgb(71.754456%, 76.663208%, 83.583069%)" offset="0.199219"/><stop stop-opacity="1" stop-color="rgb(71.205139%, 76.210022%, 83.26416%)" offset="0.203125"/><stop stop-opacity="1" stop-color="rgb(70.657349%, 75.756836%, 82.945251%)" offset="0.207031"/><stop stop-opacity="1" stop-color="rgb(70.109558%, 75.30365%, 82.626343%)" offset="0.210938"/><stop stop-opacity="1" stop-color="rgb(69.560242%, 74.850464%, 82.307434%)" offset="0.214844"/><stop stop-opacity="1" stop-color="rgb(69.012451%, 74.397278%, 81.988525%)" offset="0.21875"/><stop stop-opacity="1" stop-color="rgb(68.463135%, 73.944092%, 81.671143%)" offset="0.222656"/><stop stop-opacity="1" stop-color="rgb(67.915344%, 73.490906%, 81.352234%)" offset="0.226562"/><stop stop-opacity="1" stop-color="rgb(67.366028%, 73.03772%, 81.033325%)" offset="0.230469"/><stop stop-opacity="1" stop-color="rgb(66.818237%, 72.584534%, 80.714417%)" offset="0.234375"/><stop stop-opacity="1" stop-color="rgb(66.270447%, 72.131348%, 80.395508%)" offset="0.238281"/><stop stop-opacity="1" stop-color="rgb(65.72113%, 71.678162%, 80.076599%)" offset="0.242188"/><stop stop-opacity="1" stop-color="rgb(65.17334%, 71.224976%, 79.75769%)" offset="0.246094"/><stop stop-opacity="1" stop-color="rgb(64.624023%, 70.77179%, 79.438782%)" offset="0.25"/><stop stop-opacity="1" stop-color="rgb(64.076233%, 70.318604%, 79.119873%)" offset="0.253906"/><stop stop-opacity="1" stop-color="rgb(63.528442%, 69.865417%, 78.800964%)" offset="0.257812"/><stop stop-opacity="1" stop-color="rgb(62.979126%, 69.412231%, 78.483582%)" offset="0.261719"/><stop stop-opacity="1" stop-color="rgb(62.431335%, 68.959045%, 78.164673%)" offset="0.265625"/><stop stop-opacity="1" stop-color="rgb(61.882019%, 68.505859%, 77.845764%)" offset="0.269531"/><stop stop-opacity="1" stop-color="rgb(61.334229%, 68.052673%, 77.526855%)" offset="0.273438"/><stop stop-opacity="1" stop-color="rgb(60.784912%, 67.599487%, 77.207947%)" offset="0.277344"/><stop stop-opacity="1" stop-color="rgb(60.237122%, 67.146301%, 76.889038%)" offset="0.28125"/><stop stop-opacity="1" stop-color="rgb(59.689331%, 66.693115%, 76.570129%)" offset="0.285156"/><stop stop-opacity="1" stop-color="rgb(59.140015%, 66.241455%, 76.251221%)" offset="0.289062"/><stop stop-opacity="1" stop-color="rgb(58.592224%, 65.788269%, 75.932312%)" offset="0.292969"/><stop stop-opacity="1" stop-color="rgb(58.042908%, 65.335083%, 75.614929%)" offset="0.296875"/><stop stop-opacity="1" stop-color="rgb(57.495117%, 64.881897%, 75.296021%)" offset="0.300781"/><stop stop-opacity="1" stop-color="rgb(56.945801%, 64.428711%, 74.977112%)" offset="0.304688"/><stop stop-opacity="1" stop-color="rgb(56.39801%, 63.975525%, 74.658203%)" offset="0.308594"/><stop stop-opacity="1" stop-color="rgb(55.85022%, 63.522339%, 74.339294%)" offset="0.3125"/><stop stop-opacity="1" stop-color="rgb(55.300903%, 63.069153%, 74.020386%)" offset="0.316406"/><stop stop-opacity="1" stop-color="rgb(54.753113%, 62.615967%, 73.701477%)" offset="0.320312"/><stop stop-opacity="1" stop-color="rgb(54.203796%, 62.162781%, 73.382568%)" offset="0.324219"/><stop stop-opacity="1" stop-color="rgb(53.656006%, 61.709595%, 73.06366%)" offset="0.328125"/><stop stop-opacity="1" stop-color="rgb(53.106689%, 61.256409%, 72.744751%)" offset="0.332031"/><stop stop-opacity="1" stop-color="rgb(52.558899%, 60.803223%, 72.427368%)" offset="0.335938"/><stop stop-opacity="1" stop-color="rgb(52.011108%, 60.350037%, 72.108459%)" offset="0.339844"/><stop stop-opacity="1" stop-color="rgb(51.461792%, 59.896851%, 71.789551%)" offset="0.34375"/><stop stop-opacity="1" stop-color="rgb(50.914001%, 59.443665%, 71.470642%)" offset="0.347656"/><stop stop-opacity="1" stop-color="rgb(50.364685%, 58.990479%, 71.151733%)" offset="0.351562"/><stop stop-opacity="1" stop-color="rgb(49.816895%, 58.537292%, 70.832825%)" offset="0.355469"/><stop stop-opacity="1" stop-color="rgb(49.267578%, 58.084106%, 70.513916%)" offset="0.359375"/><stop stop-opacity="1" stop-color="rgb(48.719788%, 57.63092%, 70.195007%)" offset="0.363281"/><stop stop-opacity="1" stop-color="rgb(48.171997%, 57.177734%, 69.876099%)" offset="0.367188"/><stop stop-opacity="1" stop-color="rgb(47.622681%, 56.724548%, 69.55719%)" offset="0.371094"/><stop stop-opacity="1" stop-color="rgb(47.07489%, 56.271362%, 69.239807%)" offset="0.375"/><stop stop-opacity="1" stop-color="rgb(46.525574%, 55.818176%, 68.920898%)" offset="0.378906"/><stop stop-opacity="1" stop-color="rgb(45.977783%, 55.36499%, 68.60199%)" offset="0.382812"/><stop stop-opacity="1" stop-color="rgb(45.429993%, 54.91333%, 68.283081%)" offset="0.386719"/><stop stop-opacity="1" stop-color="rgb(44.880676%, 54.460144%, 67.964172%)" offset="0.390625"/><stop stop-opacity="1" stop-color="rgb(44.332886%, 54.006958%, 67.645264%)" offset="0.394531"/><stop stop-opacity="1" stop-color="rgb(43.783569%, 53.553772%, 67.326355%)" offset="0.398438"/><stop stop-opacity="1" stop-color="rgb(43.235779%, 53.100586%, 67.007446%)" offset="0.402344"/><stop stop-opacity="1" stop-color="rgb(42.686462%, 52.6474%, 66.688538%)" offset="0.40625"/><stop stop-opacity="1" stop-color="rgb(42.138672%, 52.194214%, 66.371155%)" offset="0.410156"/><stop stop-opacity="1" stop-color="rgb(41.590881%, 51.741028%, 66.052246%)" offset="0.414062"/><stop stop-opacity="1" stop-color="rgb(41.041565%, 51.287842%, 65.733337%)" offset="0.417969"/><stop stop-opacity="1" stop-color="rgb(40.493774%, 50.834656%, 65.414429%)" offset="0.421875"/><stop stop-opacity="1" stop-color="rgb(39.944458%, 50.38147%, 65.09552%)" offset="0.425781"/><stop stop-opacity="1" stop-color="rgb(39.396667%, 49.928284%, 64.776611%)" offset="0.429688"/><stop stop-opacity="1" stop-color="rgb(38.847351%, 49.475098%, 64.457703%)" offset="0.433594"/><stop stop-opacity="1" stop-color="rgb(38.299561%, 49.021912%, 64.138794%)" offset="0.4375"/><stop stop-opacity="1" stop-color="rgb(37.75177%, 48.568726%, 63.819885%)" offset="0.441406"/><stop stop-opacity="1" stop-color="rgb(37.202454%, 48.11554%, 63.500977%)" offset="0.445312"/><stop stop-opacity="1" stop-color="rgb(36.654663%, 47.662354%, 63.183594%)" offset="0.449219"/><stop stop-opacity="1" stop-color="rgb(36.105347%, 47.209167%, 62.864685%)" offset="0.453125"/><stop stop-opacity="1" stop-color="rgb(35.557556%, 46.755981%, 62.545776%)" offset="0.457031"/><stop stop-opacity="1" stop-color="rgb(35.00824%, 46.302795%, 62.226868%)" offset="0.460938"/><stop stop-opacity="1" stop-color="rgb(34.460449%, 45.849609%, 61.907959%)" offset="0.464844"/><stop stop-opacity="1" stop-color="rgb(33.912659%, 45.396423%, 61.58905%)" offset="0.46875"/><stop stop-opacity="1" stop-color="rgb(33.363342%, 44.943237%, 61.270142%)" offset="0.472656"/><stop stop-opacity="1" stop-color="rgb(32.815552%, 44.490051%, 60.951233%)" offset="0.476562"/><stop stop-opacity="1" stop-color="rgb(32.266235%, 44.036865%, 60.632324%)" offset="0.480469"/><stop stop-opacity="1" stop-color="rgb(31.718445%, 43.585205%, 60.314941%)" offset="0.484375"/><stop stop-opacity="1" stop-color="rgb(31.170654%, 43.132019%, 59.996033%)" offset="0.488281"/><stop stop-opacity="1" stop-color="rgb(30.621338%, 42.678833%, 59.677124%)" offset="0.492188"/><stop stop-opacity="1" stop-color="rgb(30.073547%, 42.225647%, 59.358215%)" offset="0.496094"/><stop stop-opacity="1" stop-color="rgb(29.736328%, 41.882324%, 59.016418%)" offset="0.5"/><stop stop-opacity="1" stop-color="rgb(29.60968%, 41.648865%, 58.651733%)" offset="0.503906"/><stop stop-opacity="1" stop-color="rgb(29.484558%, 41.416931%, 58.287048%)" offset="0.507812"/><stop stop-opacity="1" stop-color="rgb(29.359436%, 41.183472%, 57.922363%)" offset="0.511719"/><stop stop-opacity="1" stop-color="rgb(29.232788%, 40.951538%, 57.556152%)" offset="0.515625"/><stop stop-opacity="1" stop-color="rgb(29.107666%, 40.718079%, 57.191467%)" offset="0.519531"/><stop stop-opacity="1" stop-color="rgb(28.981018%, 40.486145%, 56.826782%)" offset="0.523438"/><stop stop-opacity="1" stop-color="rgb(28.855896%, 40.252686%, 56.462097%)" offset="0.527344"/><stop stop-opacity="1" stop-color="rgb(28.729248%, 40.019226%, 56.097412%)" offset="0.53125"/><stop stop-opacity="1" stop-color="rgb(28.604126%, 39.787292%, 55.732727%)" offset="0.535156"/><stop stop-opacity="1" stop-color="rgb(28.477478%, 39.553833%, 55.368042%)" offset="0.539062"/><stop stop-opacity="1" stop-color="rgb(28.352356%, 39.321899%, 55.003357%)" offset="0.542969"/><stop stop-opacity="1" stop-color="rgb(28.227234%, 39.08844%, 54.638672%)" offset="0.546875"/><stop stop-opacity="1" stop-color="rgb(28.100586%, 38.856506%, 54.272461%)" offset="0.550781"/><stop stop-opacity="1" stop-color="rgb(27.975464%, 38.623047%, 53.907776%)" offset="0.554688"/><stop stop-opacity="1" stop-color="rgb(27.848816%, 38.389587%, 53.543091%)" offset="0.558594"/><stop stop-opacity="1" stop-color="rgb(27.723694%, 38.157654%, 53.178406%)" offset="0.5625"/><stop stop-opacity="1" stop-color="rgb(27.597046%, 37.924194%, 52.813721%)" offset="0.566406"/><stop stop-opacity="1" stop-color="rgb(27.471924%, 37.692261%, 52.449036%)" offset="0.570312"/><stop stop-opacity="1" stop-color="rgb(27.346802%, 37.458801%, 52.084351%)" offset="0.574219"/><stop stop-opacity="1" stop-color="rgb(27.220154%, 37.226868%, 51.719666%)" offset="0.578125"/><stop stop-opacity="1" stop-color="rgb(27.095032%, 36.993408%, 51.35498%)" offset="0.582031"/><stop stop-opacity="1" stop-color="rgb(26.968384%, 36.759949%, 50.990295%)" offset="0.585938"/><stop stop-opacity="1" stop-color="rgb(26.843262%, 36.528015%, 50.624084%)" offset="0.589844"/><stop stop-opacity="1" stop-color="rgb(26.716614%, 36.294556%, 50.259399%)" offset="0.59375"/><stop stop-opacity="1" stop-color="rgb(26.591492%, 36.062622%, 49.894714%)" offset="0.597656"/><stop stop-opacity="1" stop-color="rgb(26.46637%, 35.829163%, 49.530029%)" offset="0.601562"/><stop stop-opacity="1" stop-color="rgb(26.339722%, 35.595703%, 49.165344%)" offset="0.605469"/><stop stop-opacity="1" stop-color="rgb(26.2146%, 35.36377%, 48.800659%)" offset="0.609375"/><stop stop-opacity="1" stop-color="rgb(26.087952%, 35.13031%, 48.435974%)" offset="0.613281"/><stop stop-opacity="1" stop-color="rgb(25.96283%, 34.898376%, 48.071289%)" offset="0.617188"/><stop stop-opacity="1" stop-color="rgb(25.836182%, 34.664917%, 47.706604%)" offset="0.621094"/><stop stop-opacity="1" stop-color="rgb(25.71106%, 34.432983%, 47.340393%)" offset="0.625"/><stop stop-opacity="1" stop-color="rgb(25.585938%, 34.199524%, 46.975708%)" offset="0.628906"/><stop stop-opacity="1" stop-color="rgb(25.45929%, 33.966064%, 46.611023%)" offset="0.632812"/><stop stop-opacity="1" stop-color="rgb(25.334167%, 33.734131%, 46.246338%)" offset="0.636719"/><stop stop-opacity="1" stop-color="rgb(25.20752%, 33.500671%, 45.881653%)" offset="0.640625"/><stop stop-opacity="1" stop-color="rgb(25.082397%, 33.268738%, 45.516968%)" offset="0.644531"/><stop stop-opacity="1" stop-color="rgb(24.95575%, 33.035278%, 45.152283%)" offset="0.648438"/><stop stop-opacity="1" stop-color="rgb(24.830627%, 32.803345%, 44.787598%)" offset="0.652344"/><stop stop-opacity="1" stop-color="rgb(24.705505%, 32.569885%, 44.422913%)" offset="0.65625"/><stop stop-opacity="1" stop-color="rgb(24.578857%, 32.336426%, 44.058228%)" offset="0.660156"/><stop stop-opacity="1" stop-color="rgb(24.453735%, 32.104492%, 43.692017%)" offset="0.664062"/><stop stop-opacity="1" stop-color="rgb(24.327087%, 31.871033%, 43.327332%)" offset="0.667969"/><stop stop-opacity="1" stop-color="rgb(24.201965%, 31.639099%, 42.962646%)" offset="0.671875"/><stop stop-opacity="1" stop-color="rgb(24.075317%, 31.40564%, 42.597961%)" offset="0.675781"/><stop stop-opacity="1" stop-color="rgb(23.950195%, 31.173706%, 42.233276%)" offset="0.679688"/><stop stop-opacity="1" stop-color="rgb(23.823547%, 30.940247%, 41.868591%)" offset="0.683594"/><stop stop-opacity="1" stop-color="rgb(23.698425%, 30.706787%, 41.503906%)" offset="0.6875"/><stop stop-opacity="1" stop-color="rgb(23.573303%, 30.474854%, 41.139221%)" offset="0.691406"/><stop stop-opacity="1" stop-color="rgb(23.446655%, 30.241394%, 40.774536%)" offset="0.695312"/><stop stop-opacity="1" stop-color="rgb(23.321533%, 30.00946%, 40.409851%)" offset="0.699219"/><stop stop-opacity="1" stop-color="rgb(23.194885%, 29.776001%, 40.04364%)" offset="0.703125"/><stop stop-opacity="1" stop-color="rgb(23.069763%, 29.544067%, 39.678955%)" offset="0.707031"/><stop stop-opacity="1" stop-color="rgb(22.943115%, 29.310608%, 39.31427%)" offset="0.710938"/><stop stop-opacity="1" stop-color="rgb(22.817993%, 29.077148%, 38.949585%)" offset="0.714844"/><stop stop-opacity="1" stop-color="rgb(22.692871%, 28.845215%, 38.5849%)" offset="0.71875"/><stop stop-opacity="1" stop-color="rgb(22.566223%, 28.611755%, 38.220215%)" offset="0.722656"/><stop stop-opacity="1" stop-color="rgb(22.441101%, 28.379822%, 37.85553%)" offset="0.726562"/><stop stop-opacity="1" stop-color="rgb(22.314453%, 28.146362%, 37.490845%)" offset="0.730469"/><stop stop-opacity="1" stop-color="rgb(22.189331%, 27.912903%, 37.12616%)" offset="0.734375"/><stop stop-opacity="1" stop-color="rgb(22.062683%, 27.680969%, 36.759949%)" offset="0.738281"/><stop stop-opacity="1" stop-color="rgb(21.937561%, 27.44751%, 36.395264%)" offset="0.742188"/><stop stop-opacity="1" stop-color="rgb(21.812439%, 27.215576%, 36.030579%)" offset="0.746094"/><stop stop-opacity="1" stop-color="rgb(21.685791%, 26.982117%, 35.665894%)" offset="0.75"/><stop stop-opacity="1" stop-color="rgb(21.560669%, 26.750183%, 35.301208%)" offset="0.753906"/><stop stop-opacity="1" stop-color="rgb(21.434021%, 26.516724%, 34.936523%)" offset="0.757812"/><stop stop-opacity="1" stop-color="rgb(21.308899%, 26.283264%, 34.571838%)" offset="0.761719"/><stop stop-opacity="1" stop-color="rgb(21.182251%, 26.051331%, 34.207153%)" offset="0.765625"/><stop stop-opacity="1" stop-color="rgb(21.057129%, 25.817871%, 33.842468%)" offset="0.769531"/><stop stop-opacity="1" stop-color="rgb(20.932007%, 25.585938%, 33.477783%)" offset="0.773438"/><stop stop-opacity="1" stop-color="rgb(20.805359%, 25.352478%, 33.111572%)" offset="0.777344"/><stop stop-opacity="1" stop-color="rgb(20.680237%, 25.120544%, 32.746887%)" offset="0.78125"/><stop stop-opacity="1" stop-color="rgb(20.553589%, 24.887085%, 32.382202%)" offset="0.785156"/><stop stop-opacity="1" stop-color="rgb(20.428467%, 24.653625%, 32.017517%)" offset="0.789062"/><stop stop-opacity="1" stop-color="rgb(20.301819%, 24.421692%, 31.652832%)" offset="0.792969"/><stop stop-opacity="1" stop-color="rgb(20.176697%, 24.188232%, 31.288147%)" offset="0.796875"/><stop stop-opacity="1" stop-color="rgb(20.051575%, 23.956299%, 30.923462%)" offset="0.800781"/><stop stop-opacity="1" stop-color="rgb(19.924927%, 23.722839%, 30.558777%)" offset="0.804688"/><stop stop-opacity="1" stop-color="rgb(19.799805%, 23.490906%, 30.194092%)" offset="0.808594"/><stop stop-opacity="1" stop-color="rgb(19.673157%, 23.257446%, 29.827881%)" offset="0.8125"/><stop stop-opacity="1" stop-color="rgb(19.548035%, 23.023987%, 29.463196%)" offset="0.816406"/><stop stop-opacity="1" stop-color="rgb(19.421387%, 22.792053%, 29.098511%)" offset="0.820312"/><stop stop-opacity="1" stop-color="rgb(19.296265%, 22.558594%, 28.733826%)" offset="0.824219"/><stop stop-opacity="1" stop-color="rgb(19.171143%, 22.32666%, 28.369141%)" offset="0.828125"/><stop stop-opacity="1" stop-color="rgb(19.044495%, 22.093201%, 28.004456%)" offset="0.832031"/><stop stop-opacity="1" stop-color="rgb(18.919373%, 21.861267%, 27.639771%)" offset="0.835938"/><stop stop-opacity="1" stop-color="rgb(18.792725%, 21.627808%, 27.275085%)" offset="0.839844"/><stop stop-opacity="1" stop-color="rgb(18.667603%, 21.394348%, 26.9104%)" offset="0.84375"/><stop stop-opacity="1" stop-color="rgb(18.540955%, 21.162415%, 26.545715%)" offset="0.847656"/><stop stop-opacity="1" stop-color="rgb(18.415833%, 20.928955%, 26.179504%)" offset="0.851562"/><stop stop-opacity="1" stop-color="rgb(18.289185%, 20.697021%, 25.814819%)" offset="0.855469"/><stop stop-opacity="1" stop-color="rgb(18.164062%, 20.463562%, 25.450134%)" offset="0.859375"/><stop stop-opacity="1" stop-color="rgb(18.03894%, 20.230103%, 25.085449%)" offset="0.863281"/><stop stop-opacity="1" stop-color="rgb(17.912292%, 19.998169%, 24.720764%)" offset="0.867188"/><stop stop-opacity="1" stop-color="rgb(17.78717%, 19.764709%, 24.356079%)" offset="0.871094"/><stop stop-opacity="1" stop-color="rgb(17.660522%, 19.532776%, 23.991394%)" offset="0.875"/><stop stop-opacity="1" stop-color="rgb(17.5354%, 19.299316%, 23.626709%)" offset="0.878906"/><stop stop-opacity="1" stop-color="rgb(17.408752%, 19.067383%, 23.262024%)" offset="0.882812"/><stop stop-opacity="1" stop-color="rgb(17.28363%, 18.833923%, 22.897339%)" offset="0.886719"/><stop stop-opacity="1" stop-color="rgb(17.158508%, 18.600464%, 22.531128%)" offset="0.890625"/><stop stop-opacity="1" stop-color="rgb(17.03186%, 18.36853%, 22.166443%)" offset="0.894531"/><stop stop-opacity="1" stop-color="rgb(16.906738%, 18.135071%, 21.801758%)" offset="0.898438"/><stop stop-opacity="1" stop-color="rgb(16.78009%, 17.903137%, 21.437073%)" offset="0.902344"/><stop stop-opacity="1" stop-color="rgb(16.654968%, 17.669678%, 21.072388%)" offset="0.90625"/><stop stop-opacity="1" stop-color="rgb(16.52832%, 17.437744%, 20.707703%)" offset="0.910156"/><stop stop-opacity="1" stop-color="rgb(16.403198%, 17.204285%, 20.343018%)" offset="0.914062"/><stop stop-opacity="1" stop-color="rgb(16.278076%, 16.970825%, 19.978333%)" offset="0.917969"/><stop stop-opacity="1" stop-color="rgb(16.151428%, 16.738892%, 19.613647%)" offset="0.921875"/><stop stop-opacity="1" stop-color="rgb(16.026306%, 16.505432%, 19.247437%)" offset="0.925781"/><stop stop-opacity="1" stop-color="rgb(15.899658%, 16.273499%, 18.882751%)" offset="0.929688"/><stop stop-opacity="1" stop-color="rgb(15.774536%, 16.040039%, 18.518066%)" offset="0.933594"/><stop stop-opacity="1" stop-color="rgb(15.647888%, 15.808105%, 18.153381%)" offset="0.9375"/><stop stop-opacity="1" stop-color="rgb(15.522766%, 15.574646%, 17.788696%)" offset="0.941406"/><stop stop-opacity="1" stop-color="rgb(15.397644%, 15.341187%, 17.424011%)" offset="0.945312"/><stop stop-opacity="1" stop-color="rgb(15.270996%, 15.109253%, 17.059326%)" offset="0.949219"/><stop stop-opacity="1" stop-color="rgb(15.145874%, 14.875793%, 16.694641%)" offset="0.953125"/><stop stop-opacity="1" stop-color="rgb(15.019226%, 14.64386%, 16.329956%)" offset="0.957031"/><stop stop-opacity="1" stop-color="rgb(14.894104%, 14.4104%, 15.965271%)" offset="0.960938"/><stop stop-opacity="1" stop-color="rgb(14.767456%, 14.178467%, 15.59906%)" offset="0.964844"/><stop stop-opacity="1" stop-color="rgb(14.642334%, 13.945007%, 15.234375%)" offset="0.96875"/><stop stop-opacity="1" stop-color="rgb(14.517212%, 13.711548%, 14.86969%)" offset="0.972656"/><stop stop-opacity="1" stop-color="rgb(14.390564%, 13.479614%, 14.505005%)" offset="0.976562"/><stop stop-opacity="1" stop-color="rgb(14.265442%, 13.246155%, 14.14032%)" offset="0.980469"/><stop stop-opacity="1" stop-color="rgb(14.138794%, 13.014221%, 13.775635%)" offset="0.984375"/><stop stop-opacity="1" stop-color="rgb(14.013672%, 12.780762%, 13.41095%)" offset="0.988281"/><stop stop-opacity="1" stop-color="rgb(13.887024%, 12.547302%, 13.046265%)" offset="0.992188"/><stop stop-opacity="1" stop-color="rgb(13.761902%, 12.315369%, 12.68158%)" offset="0.996094"/><stop stop-opacity="1" stop-color="rgb(13.699341%, 12.199402%, 12.5%)" offset="1"/></radialGradient></defs><g clip-path="url(#e01a3515b9)"><g clip-path="url(#e04bbbe6f9)"><path fill="url(#409e6ac564)" d="M 27.09375 11.328125 L 27.09375 101.421875 L 198.082031 101.421875 L 198.082031 11.328125 Z M 27.09375 11.328125 " fill-rule="nonzero"/></g></g><path fill="#6181b6" d="M 194.742188 56.375 C 194.742188 57.058594 194.710938 57.738281 194.644531 58.421875 C 194.578125 59.101562 194.480469 59.78125 194.347656 60.460938 C 194.214844 61.140625 194.050781 61.816406 193.855469 62.492188 C 193.65625 63.167969 193.425781 63.839844 193.164062 64.507812 C 192.902344 65.179688 192.609375 65.84375 192.28125 66.507812 C 191.953125 67.167969 191.597656 67.824219 191.207031 68.480469 C 190.816406 69.132812 190.394531 69.78125 189.941406 70.421875 C 189.488281 71.066406 189.003906 71.703125 188.488281 72.332031 C 187.976562 72.960938 187.429688 73.585938 186.855469 74.203125 C 186.28125 74.820312 185.675781 75.429688 185.042969 76.03125 C 184.410156 76.632812 183.746094 77.226562 183.054688 77.8125 C 182.363281 78.398438 181.644531 78.972656 180.898438 79.542969 C 180.152344 80.109375 179.378906 80.667969 178.578125 81.214844 C 177.773438 81.761719 176.949219 82.300781 176.09375 82.828125 C 175.242188 83.355469 174.363281 83.871094 173.460938 84.378906 C 172.558594 84.882812 171.632812 85.378906 170.679688 85.859375 C 169.730469 86.34375 168.757812 86.8125 167.761719 87.273438 C 166.765625 87.730469 165.746094 88.175781 164.707031 88.609375 C 163.667969 89.042969 162.609375 89.460938 161.527344 89.867188 C 160.449219 90.273438 159.347656 90.667969 158.230469 91.046875 C 157.113281 91.425781 155.976562 91.789062 154.824219 92.140625 C 153.671875 92.492188 152.503906 92.828125 151.316406 93.148438 C 150.128906 93.472656 148.929688 93.777344 147.714844 94.070312 C 146.5 94.363281 145.269531 94.640625 144.027344 94.898438 C 142.785156 95.160156 141.53125 95.40625 140.265625 95.636719 C 139 95.867188 137.722656 96.082031 136.4375 96.277344 C 135.148438 96.476562 133.855469 96.660156 132.550781 96.824219 C 131.246094 96.992188 129.933594 97.140625 128.617188 97.273438 C 127.296875 97.40625 125.972656 97.523438 124.644531 97.621094 C 123.3125 97.722656 121.980469 97.804688 120.640625 97.875 C 119.304688 97.941406 117.960938 97.992188 116.621094 98.023438 C 115.277344 98.058594 113.933594 98.074219 112.589844 98.074219 C 111.242188 98.074219 109.898438 98.058594 108.558594 98.023438 C 107.214844 97.992188 105.875 97.941406 104.535156 97.875 C 103.199219 97.804688 101.863281 97.722656 100.535156 97.621094 C 99.203125 97.523438 97.878906 97.40625 96.5625 97.273438 C 95.242188 97.140625 93.929688 96.992188 92.625 96.824219 C 91.320312 96.660156 90.027344 96.476562 88.738281 96.277344 C 87.453125 96.082031 86.175781 95.867188 84.910156 95.636719 C 83.644531 95.40625 82.390625 95.160156 81.148438 94.898438 C 79.90625 94.640625 78.679688 94.363281 77.460938 94.070312 C 76.246094 93.777344 75.046875 93.472656 73.859375 93.148438 C 72.675781 92.828125 71.503906 92.492188 70.351562 92.140625 C 69.199219 91.789062 68.0625 91.425781 66.945312 91.046875 C 65.828125 90.667969 64.730469 90.273438 63.648438 89.867188 C 62.570312 89.460938 61.507812 89.042969 60.46875 88.609375 C 59.429688 88.175781 58.414062 87.730469 57.417969 87.273438 C 56.421875 86.8125 55.445312 86.34375 54.496094 85.859375 C 53.546875 85.378906 52.617188 84.882812 51.714844 84.378906 C 50.8125 83.871094 49.933594 83.355469 49.082031 82.828125 C 48.230469 82.300781 47.402344 81.761719 46.601562 81.214844 C 45.800781 80.667969 45.027344 80.109375 44.277344 79.542969 C 43.53125 78.972656 42.8125 78.398438 42.121094 77.8125 C 41.429688 77.226562 40.769531 76.632812 40.132812 76.03125 C 39.5 75.429688 38.894531 74.820312 38.320312 74.203125 C 37.746094 73.585938 37.203125 72.960938 36.6875 72.332031 C 36.171875 71.703125 35.6875 71.066406 35.234375 70.421875 C 34.78125 69.78125 34.359375 69.132812 33.972656 68.480469 C 33.582031 67.824219 33.222656 67.167969 32.894531 66.507812 C 32.570312 65.84375 32.273438 65.179688 32.011719 64.507812 C 31.75 63.839844 31.519531 63.167969 31.324219 62.492188 C 31.125 61.816406 30.960938 61.140625 30.828125 60.460938 C 30.695312 59.78125 30.597656 59.101562 30.53125 58.421875 C 30.464844 57.738281 30.433594 57.058594 30.433594 56.375 C 30.433594 55.691406 30.464844 55.011719 30.53125 54.328125 C 30.597656 53.648438 30.695312 52.964844 30.828125 52.289062 C 30.960938 51.609375 31.125 50.929688 31.324219 50.253906 C 31.519531 49.582031 31.75 48.910156 32.011719 48.238281 C 32.273438 47.570312 32.570312 46.902344 32.894531 46.242188 C 33.222656 45.582031 33.582031 44.921875 33.972656 44.269531 C 34.359375 43.617188 34.78125 42.96875 35.234375 42.328125 C 35.6875 41.683594 36.171875 41.046875 36.6875 40.417969 C 37.203125 39.785156 37.746094 39.164062 38.320312 38.546875 C 38.894531 37.929688 39.5 37.320312 40.132812 36.71875 C 40.769531 36.117188 41.429688 35.523438 42.121094 34.9375 C 42.8125 34.351562 43.53125 33.773438 44.277344 33.207031 C 45.027344 32.640625 45.800781 32.082031 46.601562 31.535156 C 47.402344 30.984375 48.230469 30.449219 49.082031 29.921875 C 49.933594 29.394531 50.8125 28.875 51.714844 28.371094 C 52.617188 27.863281 53.546875 27.371094 54.496094 26.886719 C 55.445312 26.40625 56.421875 25.933594 57.417969 25.476562 C 58.414062 25.019531 59.429688 24.574219 60.46875 24.140625 C 61.507812 23.707031 62.570312 23.289062 63.648438 22.882812 C 64.730469 22.472656 65.828125 22.082031 66.945312 21.703125 C 68.0625 21.324219 69.199219 20.957031 70.351562 20.605469 C 71.503906 20.257812 72.675781 19.921875 73.859375 19.597656 C 75.046875 19.277344 76.246094 18.96875 77.460938 18.679688 C 78.679688 18.386719 79.90625 18.109375 81.148438 17.847656 C 82.390625 17.585938 83.644531 17.34375 84.910156 17.113281 C 86.175781 16.882812 87.453125 16.667969 88.738281 16.46875 C 90.027344 16.273438 91.320312 16.089844 92.625 15.925781 C 93.929688 15.757812 95.242188 15.609375 96.5625 15.476562 C 97.878906 15.34375 99.203125 15.226562 100.535156 15.125 C 101.863281 15.027344 103.199219 14.941406 104.535156 14.875 C 105.875 14.808594 107.214844 14.757812 108.558594 14.726562 C 109.898438 14.691406 111.242188 14.675781 112.589844 14.675781 C 113.933594 14.675781 115.277344 14.691406 116.621094 14.726562 C 117.960938 14.757812 119.304688 14.808594 120.640625 14.875 C 121.980469 14.941406 123.3125 15.027344 124.644531 15.125 C 125.972656 15.226562 127.296875 15.34375 128.617188 15.476562 C 129.933594 15.609375 131.246094 15.757812 132.550781 15.925781 C 133.855469 16.089844 135.148438 16.273438 136.4375 16.46875 C 137.722656 16.667969 139 16.882812 140.265625 17.113281 C 141.53125 17.34375 142.785156 17.585938 144.027344 17.847656 C 145.269531 18.109375 146.5 18.386719 147.714844 18.679688 C 148.929688 18.96875 150.128906 19.277344 151.316406 19.597656 C 152.503906 19.921875 153.671875 20.257812 154.824219 20.605469 C 155.976562 20.957031 157.113281 21.324219 158.230469 21.703125 C 159.347656 22.082031 160.449219 22.472656 161.527344 22.882812 C 162.609375 23.289062 163.667969 23.707031 164.707031 24.140625 C 165.746094 24.574219 166.765625 25.019531 167.761719 25.476562 C 168.757812 25.933594 169.730469 26.40625 170.679688 26.886719 C 171.632812 27.371094 172.558594 27.863281 173.460938 28.371094 C 174.363281 28.875 175.242188 29.394531 176.09375 29.921875 C 176.949219 30.449219 177.773438 30.984375 178.578125 31.535156 C 179.378906 32.082031 180.152344 32.640625 180.898438 33.207031 C 181.644531 33.773438 182.363281 34.351562 183.054688 34.9375 C 183.746094 35.523438 184.410156 36.117188 185.042969 36.71875 C 185.675781 37.320312 186.28125 37.929688 186.855469 38.546875 C 187.429688 39.164062 187.976562 39.785156 188.488281 40.417969 C 189.003906 41.046875 189.488281 41.683594 189.941406 42.328125 C 190.394531 42.96875 190.816406 43.617188 191.207031 44.269531 C 191.597656 44.921875 191.953125 45.582031 192.28125 46.242188 C 192.609375 46.902344 192.902344 47.570312 193.164062 48.238281 C 193.425781 48.910156 193.65625 49.582031 193.855469 50.253906 C 194.050781 50.929688 194.214844 51.609375 194.347656 52.289062 C 194.480469 52.964844 194.578125 53.648438 194.644531 54.328125 C 194.710938 55.011719 194.742188 55.691406 194.742188 56.375 Z M 194.742188 56.375 " fill-opacity="1" fill-rule="nonzero"/><path fill="#ffffff" d="M 129.21875 69.894531 L 133.292969 48.878906 C 134.230469 44.125 133.429688 40.578125 131.023438 38.371094 C 128.6875 36.226562 124.679688 35.15625 118.800781 35.15625 L 111.71875 35.15625 L 113.722656 24.714844 C 113.789062 24.3125 113.722656 23.910156 113.457031 23.578125 C 113.191406 23.242188 112.855469 23.109375 112.453125 23.109375 L 102.703125 23.109375 C 102.035156 23.109375 101.5 23.578125 101.367188 24.179688 L 97.027344 46.46875 C 96.625 43.925781 95.691406 41.78125 94.085938 40.042969 C 91.214844 36.761719 86.738281 35.089844 80.660156 35.089844 L 61.894531 35.089844 C 61.226562 35.089844 60.691406 35.558594 60.558594 36.160156 L 51.808594 81.40625 C 51.738281 81.808594 51.808594 82.210938 52.074219 82.546875 C 52.339844 82.878906 52.675781 83.015625 53.074219 83.015625 L 62.894531 83.015625 C 63.5625 83.015625 64.097656 82.546875 64.230469 81.941406 L 66.367188 71.03125 L 73.648438 71.03125 C 77.457031 71.03125 80.726562 70.632812 83.199219 69.828125 C 85.804688 68.957031 88.140625 67.550781 90.210938 65.609375 C 91.882812 64.070312 93.285156 62.332031 94.355469 60.457031 L 92.617188 69.492188 C 92.550781 69.894531 92.617188 70.296875 92.882812 70.632812 C 93.152344 70.964844 93.484375 71.101562 93.886719 71.101562 L 103.636719 71.101562 C 104.304688 71.101562 104.839844 70.632812 104.972656 70.027344 L 109.785156 45.261719 L 116.460938 45.261719 C 119.335938 45.261719 120.136719 45.800781 120.402344 46.066406 C 120.605469 46.265625 121.003906 47.070312 120.535156 49.546875 L 116.664062 69.558594 C 116.597656 69.960938 116.664062 70.363281 116.929688 70.699219 C 117.195312 71.03125 117.53125 71.167969 117.933594 71.167969 L 127.949219 71.167969 C 128.550781 70.964844 129.085938 70.496094 129.21875 69.894531 Z M 84.066406 52.492188 C 83.464844 55.636719 82.332031 57.914062 80.660156 59.1875 C 78.992188 60.457031 76.253906 61.125 72.644531 61.125 L 68.304688 61.125 L 71.445312 44.929688 L 77.054688 44.929688 C 81.195312 44.929688 82.867188 45.800781 83.535156 46.535156 C 84.402344 47.605469 84.601562 49.679688 84.066406 52.492188 Z M 84.066406 52.492188 " fill-opacity="1" fill-rule="nonzero"/><path fill="#ffffff" d="M 170.898438 40.042969 C 168.027344 36.761719 163.550781 35.089844 157.472656 35.089844 L 138.570312 35.089844 C 137.902344 35.089844 137.367188 35.558594 137.234375 36.160156 L 128.484375 81.339844 C 128.417969 81.742188 128.484375 82.144531 128.753906 82.480469 C 129.019531 82.8125 129.355469 82.945312 129.753906 82.945312 L 139.574219 82.945312 C 140.242188 82.945312 140.773438 82.480469 140.910156 81.875 L 143.046875 70.964844 L 150.328125 70.964844 C 154.132812 70.964844 157.40625 70.5625 159.878906 69.761719 C 162.484375 68.890625 164.820312 67.484375 166.890625 65.542969 C 168.628906 63.9375 170.097656 62.128906 171.164062 60.191406 C 172.234375 58.25 173.035156 56.105469 173.503906 53.765625 C 174.640625 47.941406 173.769531 43.390625 170.898438 40.042969 Z M 160.679688 52.492188 C 160.078125 55.636719 158.941406 57.914062 157.273438 59.1875 C 155.601562 60.457031 152.863281 61.125 149.257812 61.125 L 144.917969 61.125 L 148.054688 44.929688 L 153.667969 44.929688 C 157.808594 44.929688 159.476562 45.800781 160.144531 46.535156 C 161.082031 47.605469 161.28125 49.679688 160.679688 52.492188 Z M 160.679688 52.492188 " fill-opacity="1" fill-rule="nonzero"/><path fill="#000004" d="M 77.054688 43.589844 C 80.796875 43.589844 83.265625 44.257812 84.535156 45.664062 C 85.804688 47.070312 86.070312 49.414062 85.402344 52.761719 C 84.734375 56.242188 83.398438 58.785156 81.464844 60.257812 C 79.527344 61.730469 76.585938 62.464844 72.644531 62.464844 L 66.703125 62.464844 L 70.375 43.589844 Z M 53.144531 81.609375 L 62.960938 81.609375 L 65.300781 69.628906 L 73.714844 69.628906 C 77.457031 69.628906 80.460938 69.226562 82.867188 68.421875 C 85.269531 67.621094 87.40625 66.347656 89.410156 64.472656 C 91.082031 62.933594 92.417969 61.261719 93.417969 59.453125 C 94.421875 57.644531 95.15625 55.636719 95.554688 53.429688 C 96.625 48.074219 95.824219 43.925781 93.21875 40.914062 C 90.613281 37.902344 86.472656 36.429688 80.796875 36.429688 L 61.894531 36.429688 Z M 53.144531 81.609375 " fill-opacity="1" fill-rule="nonzero"/><path fill="#000004" d="M 102.769531 24.445312 L 112.523438 24.445312 L 110.183594 36.429688 L 118.867188 36.429688 C 124.34375 36.429688 128.085938 37.367188 130.15625 39.304688 C 132.226562 41.246094 132.828125 44.328125 132.023438 48.609375 L 127.949219 69.628906 L 118.066406 69.628906 L 121.941406 49.613281 C 122.40625 47.339844 122.207031 45.800781 121.472656 44.996094 C 120.738281 44.191406 119.066406 43.722656 116.597656 43.722656 L 108.78125 43.722656 L 103.773438 69.628906 L 94.019531 69.628906 Z M 102.769531 24.445312 " fill-opacity="1" fill-rule="nonzero"/><path fill="#000004" d="M 153.667969 43.589844 C 157.40625 43.589844 159.878906 44.257812 161.148438 45.664062 C 162.417969 47.070312 162.683594 49.414062 162.015625 52.761719 C 161.347656 56.242188 160.011719 58.785156 158.074219 60.257812 C 156.136719 61.730469 153.199219 62.464844 149.257812 62.464844 L 143.3125 62.464844 L 146.988281 43.589844 Z M 129.753906 81.609375 L 139.574219 81.609375 L 141.910156 69.628906 L 150.328125 69.628906 C 154.066406 69.628906 157.074219 69.226562 159.476562 68.421875 C 161.882812 67.621094 164.019531 66.347656 166.023438 64.472656 C 167.691406 62.933594 169.027344 61.261719 170.03125 59.453125 C 171.03125 57.644531 171.765625 55.636719 172.167969 53.429688 C 173.238281 48.074219 172.433594 43.925781 169.832031 40.914062 C 167.226562 37.902344 163.082031 36.429688 157.40625 36.429688 L 138.503906 36.429688 Z M 129.753906 81.609375 " fill-opacity="1" fill-rule="nonzero"/></svg>