<svg xmlns="http://www.w3.org/2000/svg" xmlns:xlink="http://www.w3.org/1999/xlink" width="300" zoomAndPan="magnify" viewBox="0 0 224.87999 112.499997" height="150" preserveAspectRatio="xMidYMid meet" version="1.0"><defs><clipPath id="39e2b4b952"><path d="M 60.667969 10 L 162.964844 10 L 162.964844 101 L 60.667969 101 Z M 60.667969 10 " clip-rule="nonzero"/></clipPath></defs><g clip-path="url(#39e2b4b952)"><path fill="#00d8ff" d="M 144.707031 39.496094 C 143.648438 39.128906 142.554688 38.785156 141.421875 38.457031 C 141.609375 37.699219 141.78125 36.949219 141.929688 36.210938 C 144.414062 24.117188 142.792969 14.371094 137.238281 11.164062 C 131.910156 8.085938 123.199219 11.292969 114.402344 18.960938 C 113.558594 19.699219 112.707031 20.480469 111.863281 21.296875 C 111.296875 20.757812 110.734375 20.234375 110.171875 19.734375 C 100.953125 11.535156 91.710938 8.078125 86.164062 11.296875 C 80.84375 14.382812 79.265625 23.542969 81.507812 35.007812 C 81.722656 36.113281 81.976562 37.246094 82.261719 38.394531 C 80.953125 38.765625 79.691406 39.160156 78.484375 39.582031 C 67.675781 43.359375 60.773438 49.273438 60.773438 55.410156 C 60.773438 61.746094 68.183594 68.105469 79.441406 71.960938 C 80.328125 72.261719 81.25 72.550781 82.199219 72.824219 C 81.890625 74.066406 81.625 75.28125 81.398438 76.472656 C 79.261719 87.738281 80.929688 96.679688 86.238281 99.746094 C 91.71875 102.914062 100.917969 99.65625 109.875 91.816406 C 110.582031 91.195312 111.292969 90.539062 112.003906 89.851562 C 112.929688 90.738281 113.847656 91.582031 114.761719 92.371094 C 123.441406 99.847656 132.007812 102.867188 137.308594 99.796875 C 142.785156 96.621094 144.566406 87.011719 142.253906 75.324219 C 142.078125 74.429688 141.871094 73.519531 141.644531 72.589844 C 142.289062 72.398438 142.925781 72.199219 143.542969 71.996094 C 155.246094 68.109375 162.859375 61.832031 162.859375 55.410156 C 162.859375 49.25 155.734375 43.296875 144.707031 39.496094 Z M 142.171875 67.847656 C 141.613281 68.035156 141.039062 68.214844 140.457031 68.382812 C 139.164062 64.289062 137.421875 59.933594 135.285156 55.429688 C 137.320312 51.035156 138.996094 46.738281 140.253906 42.664062 C 141.296875 42.96875 142.308594 43.289062 143.285156 43.625 C 152.734375 46.882812 158.496094 51.699219 158.496094 55.410156 C 158.496094 59.359375 152.273438 64.496094 142.171875 67.847656 Z M 137.976562 76.171875 C 139 81.339844 139.144531 86.011719 138.464844 89.667969 C 137.859375 92.949219 136.636719 95.140625 135.125 96.015625 C 131.90625 97.878906 125.027344 95.457031 117.609375 89.058594 C 116.757812 88.324219 115.898438 87.542969 115.042969 86.714844 C 117.917969 83.5625 120.792969 79.902344 123.597656 75.832031 C 128.53125 75.394531 133.195312 74.675781 137.425781 73.699219 C 137.632812 74.539062 137.816406 75.363281 137.976562 76.171875 Z M 95.578125 95.691406 C 92.433594 96.804688 89.929688 96.835938 88.417969 95.960938 C 85.195312 94.101562 83.859375 86.917969 85.683594 77.289062 C 85.894531 76.1875 86.144531 75.050781 86.429688 73.894531 C 90.613281 74.820312 95.238281 75.488281 100.1875 75.886719 C 103.011719 79.867188 105.972656 83.527344 108.949219 86.730469 C 108.300781 87.363281 107.648438 87.960938 107.003906 88.523438 C 103.042969 91.996094 99.074219 94.457031 95.578125 95.691406 Z M 80.851562 67.824219 C 75.875 66.121094 71.761719 63.90625 68.945312 61.484375 C 66.414062 59.316406 65.132812 57.160156 65.132812 55.410156 C 65.132812 51.6875 70.675781 46.9375 79.917969 43.707031 C 81.042969 43.316406 82.214844 42.949219 83.433594 42.601562 C 84.710938 46.761719 86.386719 51.117188 88.410156 55.515625 C 86.359375 59.980469 84.660156 64.402344 83.371094 68.617188 C 82.503906 68.363281 81.660156 68.101562 80.851562 67.824219 Z M 85.789062 34.167969 C 83.871094 24.347656 85.144531 16.9375 88.351562 15.078125 C 91.765625 13.097656 99.316406 15.921875 107.273438 23 C 107.785156 23.453125 108.296875 23.925781 108.808594 24.417969 C 105.84375 27.605469 102.914062 31.238281 100.113281 35.195312 C 95.3125 35.644531 90.714844 36.359375 86.488281 37.316406 C 86.222656 36.246094 85.988281 35.195312 85.789062 34.167969 Z M 129.820312 45.058594 C 128.8125 43.3125 127.773438 41.605469 126.71875 39.945312 C 129.976562 40.359375 133.09375 40.90625 136.027344 41.574219 C 135.148438 44.398438 134.050781 47.351562 132.757812 50.382812 C 131.835938 48.621094 130.851562 46.84375 129.820312 45.058594 Z M 111.863281 27.539062 C 113.878906 29.722656 115.890625 32.160156 117.875 34.804688 C 115.875 34.710938 113.855469 34.660156 111.816406 34.660156 C 109.796875 34.660156 107.792969 34.707031 105.804688 34.800781 C 107.789062 32.179688 109.820312 29.746094 111.863281 27.539062 Z M 93.792969 45.089844 C 92.78125 46.84375 91.820312 48.609375 90.910156 50.378906 C 89.640625 47.359375 88.554688 44.394531 87.667969 41.527344 C 90.578125 40.875 93.683594 40.34375 96.921875 39.9375 C 95.847656 41.613281 94.804688 43.332031 93.792969 45.089844 Z M 97.015625 71.191406 C 93.671875 70.820312 90.519531 70.3125 87.605469 69.679688 C 88.507812 66.761719 89.617188 63.734375 90.914062 60.652344 C 91.828125 62.421875 92.792969 64.1875 93.808594 65.945312 C 94.84375 67.734375 95.914062 69.484375 97.015625 71.191406 Z M 111.984375 83.585938 C 109.917969 81.355469 107.855469 78.882812 105.84375 76.226562 C 107.796875 76.300781 109.789062 76.339844 111.816406 76.339844 C 113.898438 76.339844 115.957031 76.292969 117.976562 76.207031 C 115.992188 78.910156 113.980469 81.386719 111.984375 83.585938 Z M 132.800781 60.496094 C 134.164062 63.613281 135.316406 66.625 136.230469 69.492188 C 133.269531 70.167969 130.070312 70.710938 126.707031 71.117188 C 127.765625 69.433594 128.8125 67.699219 129.839844 65.914062 C 130.882812 64.105469 131.867188 62.296875 132.800781 60.496094 Z M 126.058594 63.730469 C 124.464844 66.503906 122.824219 69.148438 121.164062 71.644531 C 118.136719 71.859375 115.007812 71.972656 111.816406 71.972656 C 108.636719 71.972656 105.546875 71.875 102.570312 71.679688 C 100.839844 69.152344 99.167969 66.5 97.582031 63.753906 C 96.003906 61.019531 94.546875 58.257812 93.226562 55.515625 C 94.546875 52.765625 95.996094 50.003906 97.570312 47.269531 L 97.570312 47.273438 C 99.144531 44.535156 100.804688 41.894531 102.519531 39.378906 C 105.554688 39.148438 108.667969 39.027344 111.816406 39.027344 C 114.976562 39.027344 118.09375 39.148438 121.128906 39.382812 C 122.816406 41.878906 124.464844 44.507812 126.046875 47.25 C 127.648438 50.019531 129.117188 52.761719 130.445312 55.453125 C 129.121094 58.191406 127.65625 60.964844 126.058594 63.730469 Z M 135.054688 14.945312 C 138.476562 16.921875 139.804688 24.886719 137.65625 35.328125 C 137.519531 35.996094 137.367188 36.675781 137.199219 37.363281 C 132.964844 36.382812 128.363281 35.65625 123.550781 35.203125 C 120.746094 31.199219 117.835938 27.5625 114.917969 24.414062 C 115.703125 23.65625 116.488281 22.9375 117.265625 22.257812 C 124.804688 15.6875 131.851562 13.09375 135.054688 14.945312 Z M 111.816406 46.277344 C 116.847656 46.277344 120.933594 50.363281 120.933594 55.410156 C 120.933594 60.449219 116.847656 64.539062 111.816406 64.539062 C 106.785156 64.539062 102.699219 60.449219 102.699219 55.410156 C 102.699219 50.363281 106.785156 46.277344 111.816406 46.277344 Z M 111.816406 46.277344 " fill-opacity="1" fill-rule="nonzero"/></g></svg>